<svg width="17" height="25" viewBox="0 0 17 25" fill="none" xmlns="http://www.w3.org/2000/svg">
<g clip-path="url(#clip0_637_447)">
<path d="M0.140015 10C0.140015 9.86458 0.189494 9.7474 0.288452 9.64844C0.38741 9.54948 0.504598 9.5 0.640015 9.5C0.775431 9.5 0.892619 9.54948 0.991577 9.64844L6.14001 14.7891L11.2885 9.64844C11.3874 9.54948 11.5046 9.5 11.64 9.5C11.7754 9.5 11.8926 9.54948 11.9916 9.64844C12.0905 9.7474 12.14 9.86458 12.14 10C12.14 10.1354 12.0905 10.2526 11.9916 10.3516L6.49158 15.8516C6.39262 15.9505 6.27543 16 6.14001 16C6.0046 16 5.88741 15.9505 5.78845 15.8516L0.288452 10.3516C0.189494 10.2526 0.140015 10.1354 0.140015 10Z" fill="#0E1726"/>
</g>
<defs>
<clipPath id="clip0_637_447">
<rect width="16" height="25" fill="white" transform="matrix(1 0 0 -1 0.140015 25)"/>
</clipPath>
</defs>
</svg>
