<svg width="10" height="6" viewBox="0 0 10 6" fill="none" xmlns="http://www.w3.org/2000/svg">
<path d="M0.225098 1.00127C0.225098 0.897521 0.263006 0.807738 0.338822 0.731922C0.414639 0.656105 0.504422 0.618196 0.608171 0.618196C0.71192 0.618196 0.801702 0.656105 0.877519 0.731922L4.82197 4.67039L8.76643 0.731922C8.84224 0.656105 8.93203 0.618196 9.03578 0.618196C9.13952 0.618196 9.22931 0.656105 9.30512 0.731922C9.38094 0.807738 9.41885 0.897521 9.41885 1.00127C9.41885 1.10502 9.38094 1.1948 9.30512 1.27062L5.09132 5.48442C5.0155 5.56024 4.92572 5.59814 4.82197 5.59814C4.71822 5.59814 4.62844 5.56024 4.55262 5.48442L0.338822 1.27062C0.263006 1.1948 0.225098 1.10502 0.225098 1.00127Z" fill="#AAD4F7"/>
</svg>
