<svg width="15" height="16" viewBox="0 0 15 16" fill="none" xmlns="http://www.w3.org/2000/svg">
<path d="M11.875 4.16016H3.125C2.43464 4.16016 1.875 4.7198 1.875 5.41016V12.2852C1.875 12.9755 2.43464 13.5352 3.125 13.5352H11.875C12.5654 13.5352 13.125 12.9755 13.125 12.2852V5.41016C13.125 4.7198 12.5654 4.16016 11.875 4.16016Z" stroke="#2589AD" stroke-width="1.04167"/>
<path d="M1.875 6.66016C1.875 5.48141 1.875 4.89266 2.24125 4.52641C2.6075 4.16016 3.19625 4.16016 4.375 4.16016H10.625C11.8038 4.16016 12.3925 4.16016 12.7587 4.52641C13.125 4.89266 13.125 5.48141 13.125 6.66016H1.875Z" fill="#2589AD"/>
<path d="M4.375 2.28516V4.16016M10.625 2.28516V4.16016" stroke="#2589AD" stroke-width="1.04167" stroke-linecap="round"/>
<path d="M6.5625 7.91016H4.6875C4.51491 7.91016 4.375 8.05007 4.375 8.22266V8.84766C4.375 9.02025 4.51491 9.16016 4.6875 9.16016H6.5625C6.73509 9.16016 6.875 9.02025 6.875 8.84766V8.22266C6.875 8.05007 6.73509 7.91016 6.5625 7.91016Z" fill="#2589AD"/>
<path d="M6.5625 10.4102H4.6875C4.51491 10.4102 4.375 10.5501 4.375 10.7227V11.3477C4.375 11.5202 4.51491 11.6602 4.6875 11.6602H6.5625C6.73509 11.6602 6.875 11.5202 6.875 11.3477V10.7227C6.875 10.5501 6.73509 10.4102 6.5625 10.4102Z" fill="#2589AD"/>
<path d="M10.3125 7.91016H8.4375C8.26491 7.91016 8.125 8.05007 8.125 8.22266V8.84766C8.125 9.02025 8.26491 9.16016 8.4375 9.16016H10.3125C10.4851 9.16016 10.625 9.02025 10.625 8.84766V8.22266C10.625 8.05007 10.4851 7.91016 10.3125 7.91016Z" fill="#2589AD"/>
<path d="M10.3125 10.4102H8.4375C8.26491 10.4102 8.125 10.5501 8.125 10.7227V11.3477C8.125 11.5202 8.26491 11.6602 8.4375 11.6602H10.3125C10.4851 11.6602 10.625 11.5202 10.625 11.3477V10.7227C10.625 10.5501 10.4851 10.4102 10.3125 10.4102Z" fill="#2589AD"/>
</svg>
