<svg width="58" height="59" viewBox="0 0 58 59" fill="none" xmlns="http://www.w3.org/2000/svg">
<rect x="0.75801" y="1.13228" width="56.5342" height="56.5342" rx="6.73026" fill="#FEFEFE"/>
<rect x="0.75801" y="1.13228" width="56.5342" height="56.5342" rx="6.73026" stroke="#E6F2FB" stroke-width="0.897368"/>
<path d="M29.5 18.5C31.0101 18.5009 32.5005 18.8438 33.8592 19.5029C35.2178 20.1621 36.4096 21.1204 37.345 22.306C38.2803 23.4916 38.9351 24.8736 39.26 26.3483C39.5849 27.8231 39.5716 29.3523 39.2211 30.8212C38.8706 32.2901 38.1919 33.6605 37.236 34.8296C36.2802 35.9988 35.0719 36.9362 33.702 37.5716C32.332 38.2071 30.836 38.524 29.326 38.4986C27.8161 38.4732 26.3315 38.1061 24.9838 37.425L24.8325 37.3438L20.2763 38.4813C20.1886 38.5033 20.0971 38.5061 20.0083 38.4893C19.9194 38.4726 19.8353 38.4368 19.7616 38.3844C19.6879 38.332 19.6265 38.2642 19.5815 38.1858C19.5366 38.1073 19.5092 38.0201 19.5012 37.93V37.8275L19.5188 37.7237L20.6562 33.1687L20.5775 33.0187C20.0055 31.8927 19.6534 30.6679 19.54 29.41L19.5087 28.9325L19.5 28.5C19.5 25.8478 20.5536 23.3043 22.4289 21.4289C24.3043 19.5536 26.8478 18.5 29.5 18.5ZM29.5 19.75C27.9731 19.7498 26.4727 20.1491 25.1479 20.9083C23.8231 21.6675 22.72 22.7602 21.9483 24.0778C21.1766 25.3953 20.7631 26.8919 20.749 28.4187C20.7348 29.9456 21.1204 31.4496 21.8675 32.7812C21.9255 32.8848 21.9528 33.0027 21.9462 33.1212L21.9288 33.2388L20.9838 37.015L24.7638 36.0725C24.8406 36.0536 24.9203 36.0493 24.9988 36.06L25.1125 36.0863L25.2213 36.135C26.3879 36.7881 27.6888 37.1652 29.0239 37.2373C30.359 37.3093 31.6929 37.0745 32.9231 36.5507C34.1533 36.027 35.2471 35.2282 36.1205 34.2159C36.994 33.2035 37.6238 32.0045 37.9616 30.7108C38.2994 29.4171 38.3363 28.0633 38.0694 26.7531C37.8024 25.443 37.2388 24.2114 36.4217 23.153C35.6047 22.0947 34.5559 21.2376 33.3561 20.6477C32.1562 20.0578 30.8371 19.7507 29.5 19.75ZM30.125 29.75C30.2812 29.7497 30.4318 29.8079 30.5472 29.9131C30.6626 30.0184 30.7345 30.163 30.7486 30.3185C30.7627 30.4741 30.7181 30.6293 30.6235 30.7535C30.5289 30.8778 30.3912 30.9622 30.2375 30.99L30.125 31H26.375C26.2188 31.0003 26.0682 30.9421 25.9528 30.8369C25.8374 30.7316 25.7655 30.587 25.7514 30.4315C25.7373 30.2759 25.7819 30.1207 25.8765 29.9965C25.9711 29.8722 26.1088 29.7878 26.2625 29.76L26.375 29.75H30.125ZM32.625 26C32.7812 25.9997 32.9318 26.0579 33.0472 26.1631C33.1626 26.2684 33.2345 26.413 33.2486 26.5685C33.2627 26.7241 33.2181 26.8793 33.1235 27.0035C33.0289 27.1278 32.8912 27.2122 32.7375 27.24L32.625 27.25H26.375C26.2188 27.2503 26.0682 27.1921 25.9528 27.0869C25.8374 26.9816 25.7655 26.837 25.7514 26.6815C25.7373 26.5259 25.7819 26.3707 25.8765 26.2465C25.9711 26.1222 26.1088 26.0378 26.2625 26.01L26.375 26H32.625Z" fill="#2159A6"/>
</svg>
