<svg width="59" height="59" viewBox="0 0 59 59" fill="none" xmlns="http://www.w3.org/2000/svg">
<rect x="1.13277" y="1.13228" width="56.5342" height="56.5342" rx="6.73026" fill="#FEFEFE"/>
<rect x="1.13277" y="1.13228" width="56.5342" height="56.5342" rx="6.73026" stroke="#E6F2FB" stroke-width="0.897368"/>
<path d="M34.7084 17.042H20.1251C19.5725 17.042 19.0426 17.2615 18.6519 17.6522C18.2612 18.0429 18.0417 18.5728 18.0417 19.1253V28.5003H20.1251V19.1253H34.7084V17.042Z" fill="#2159A6"/>
<path d="M38.8749 21.208H24.2916C23.7391 21.208 23.2091 21.4275 22.8184 21.8182C22.4277 22.2089 22.2083 22.7388 22.2083 23.2913V33.708C22.2083 34.2605 22.4277 34.7904 22.8184 35.1811C23.2091 35.5718 23.7391 35.7913 24.2916 35.7913H30.052V37.3851H28.4583V38.9163H34.7083V37.3747H33.1249V35.7913H38.8749C39.4275 35.7913 39.9574 35.5718 40.3481 35.1811C40.7388 34.7904 40.9583 34.2605 40.9583 33.708V23.2913C40.9583 22.7388 40.7388 22.2089 40.3481 21.8182C39.9574 21.4275 39.4275 21.208 38.8749 21.208ZM38.8749 33.708H24.2916V23.2913H38.8749V33.708Z" fill="#2159A6"/>
</svg>
