<svg width="59" height="59" viewBox="0 0 59 59" fill="none" xmlns="http://www.w3.org/2000/svg">
<rect x="1.38301" y="1.13228" width="56.5342" height="56.5342" rx="6.73026" fill="#FEFEFE"/>
<rect x="1.38301" y="1.13228" width="56.5342" height="56.5342" rx="6.73026" stroke="#E6F2FB" stroke-width="0.897368"/>
<g clip-path="url(#clip0_323_512)">
<path d="M33.6666 16H25.3333C24.1874 16 23.2499 16.9375 23.2499 18.0833V34.75C23.2499 35.8958 24.1874 36.8333 25.3333 36.8333H37.8333C38.9791 36.8333 39.9166 35.8958 39.9166 34.75V22.25L33.6666 16ZM37.8333 34.75H25.3333V18.0833H32.6249V23.2917H37.8333V34.75ZM21.1666 20.1667V38.9167H37.8333V41H21.1666C20.0208 41 19.0833 40.0625 19.0833 38.9167V20.1667H21.1666ZM27.4166 26.4167V28.5H35.7499V26.4167H27.4166ZM27.4166 30.5833V32.6667H32.6249V30.5833H27.4166Z" fill="#2159A6"/>
</g>
<defs>
<clipPath id="clip0_323_512">
<rect width="25" height="25" fill="white" transform="translate(17 16)"/>
</clipPath>
</defs>
</svg>
