<svg width="17" height="17" viewBox="0 0 17 17" fill="none" xmlns="http://www.w3.org/2000/svg">
<rect width="17" height="17" rx="3.77778" fill="white"/>
<path d="M13.497 11.0137L13.4992 11.0125H13.4949L10.9859 9.65293L8.47279 8.29102L5.95954 9.65293L3.45056 11.0125H3.44629L3.44847 11.0137L3.44629 11.0148H3.45056L5.95954 12.3744L8.47279 13.7363L10.9859 12.3744L13.4949 11.0148H13.4992L13.497 11.0137Z" fill="#AAD4F7"/>
<path d="M13.497 5.79197L13.4992 5.79087H13.4949L10.9859 4.43125L8.47279 3.06934L5.95954 4.43125L3.45056 5.79087H3.44629L3.44847 5.79197L3.44629 5.79316H3.45056L5.95954 7.15279L8.47279 8.5147L10.9859 7.15279L13.4949 5.79316H13.4992L13.497 5.79197Z" fill="#2589AD"/>
<path d="M3.45068 5.68164V11.1246L8.47291 8.40318L3.45068 5.68164Z" fill="#2159A6"/>
<path d="M13.495 5.68164V11.1246L8.4729 8.40318L13.495 5.68164Z" fill="#2159A6"/>
</svg>
