<svg width="649" height="634" viewBox="0 0 649 634" fill="none" xmlns="http://www.w3.org/2000/svg">
<path opacity="0.0344828" d="M85.969 133.395C89.0672 129.702 93.77 127.371 100.062 126.427C106.365 125.482 114.18 125.945 123.347 127.777C141.68 131.441 165.147 140.525 192.173 154.274C246.207 181.762 314.205 227.762 383.335 285.769C452.464 343.776 509.573 402.753 546.027 451.192C564.26 475.421 577.281 496.954 584.073 514.372C587.469 523.081 589.282 530.698 589.446 537.069C589.609 543.429 588.129 548.465 585.031 552.157C581.933 555.85 577.23 558.181 570.938 559.125C564.635 560.07 556.82 559.608 547.653 557.775C529.32 554.111 505.853 545.027 478.827 531.278C424.793 503.79 356.795 457.79 287.665 399.783C218.536 341.777 161.427 282.799 124.973 234.36C106.74 210.132 93.7192 188.598 86.9273 171.18C83.531 162.471 81.718 154.855 81.5545 148.483C81.3913 142.123 82.8709 137.087 85.969 133.395Z" stroke="white" stroke-width="2.61114"/>
<path opacity="0.0689655" d="M105.167 109.833C108.575 106.425 113.463 104.512 119.814 104.12C126.175 103.728 133.92 104.87 142.893 107.494C160.836 112.743 183.422 123.837 209.148 139.889C260.58 171.982 324.31 223.734 388.121 287.545C451.932 351.356 503.683 415.086 535.776 466.518C551.829 492.243 562.923 514.83 568.171 532.773C570.795 541.746 571.938 549.491 571.545 555.852C571.154 562.202 569.241 567.09 565.833 570.499C562.424 573.907 557.536 575.82 551.186 576.211C544.825 576.604 537.08 575.462 528.107 572.837C510.164 567.589 487.577 556.495 461.852 540.442C410.42 508.349 346.69 456.598 282.879 392.787C219.068 328.976 167.316 265.246 135.223 213.814C119.171 188.088 108.076 165.502 102.828 147.559C100.204 138.586 99.0618 130.841 99.4543 124.48C99.846 118.129 101.759 113.241 105.167 109.833Z" stroke="white" stroke-width="2.61114"/>
<path opacity="0.103448" d="M126.118 88.0235C129.81 84.9253 134.847 83.4457 141.207 83.609C147.578 83.7724 155.194 85.5854 163.904 88.9817C181.322 95.7737 202.855 108.795 227.083 127.028C275.523 163.481 334.5 220.59 392.507 289.72C450.513 358.849 496.513 426.848 524.002 480.881C537.751 507.908 546.834 531.375 550.499 549.708C552.331 558.875 552.794 566.69 551.849 572.993C550.905 579.285 548.573 583.987 544.881 587.086C541.189 590.184 536.152 591.663 529.792 591.5C523.421 591.337 515.805 589.524 507.095 586.127C489.677 579.335 468.144 566.314 443.916 548.081C395.476 511.628 336.499 454.519 278.492 385.389C220.486 316.26 174.486 248.262 146.997 194.228C133.248 167.201 124.165 143.734 120.5 125.402C118.668 116.235 118.205 108.419 119.15 102.116C120.094 95.8244 122.426 91.1217 126.118 88.0235Z" stroke="white" stroke-width="2.61114"/>
<path opacity="0.137931" d="M148.663 68.1129C152.611 65.3483 157.757 64.3133 164.079 65.0302C170.412 65.7484 177.841 68.2183 186.221 72.3607C202.981 80.6449 223.298 95.493 245.845 115.768C290.923 156.305 344.698 218.337 396.459 292.259C448.22 366.181 488.118 437.93 510.793 494.153C522.134 522.275 529.138 546.445 531.19 565.027C532.217 574.319 531.997 582.145 530.506 588.341C529.017 594.527 526.284 599.009 522.336 601.773C518.388 604.538 513.242 605.573 506.92 604.856C500.587 604.138 493.158 601.668 484.778 597.526C468.018 589.241 447.702 574.393 425.155 554.118C380.077 513.581 326.301 451.549 274.54 377.627C222.78 303.705 182.881 231.957 160.207 175.733C148.865 147.611 141.861 123.441 139.809 104.859C138.783 95.5673 139.003 87.7414 140.494 81.5449C141.982 75.3591 144.715 70.8775 148.663 68.1129Z" stroke="white" stroke-width="2.61114"/>
<path opacity="0.172414" d="M172.63 50.2336C176.804 47.8236 182.021 47.241 188.256 48.5062C194.502 49.7736 201.688 52.8816 209.675 57.7386C225.649 67.452 244.594 84.0143 265.289 106.178C306.662 150.489 354.826 216.972 399.947 295.124C445.069 373.276 478.562 448.229 496.25 506.215C505.097 535.218 509.968 559.906 510.393 578.597C510.606 587.942 509.704 595.719 507.679 601.762C505.657 607.795 502.544 612.021 498.37 614.431C494.196 616.841 488.979 617.424 482.744 616.159C476.498 614.891 469.312 611.783 461.325 606.926C445.351 597.213 426.406 580.65 405.712 558.487C364.338 514.176 316.174 447.693 271.053 369.541C225.932 291.389 192.438 216.436 174.75 158.45C165.903 129.447 161.032 104.759 160.607 86.0683C160.395 76.7224 161.296 68.9454 163.321 62.9025C165.343 56.8699 168.456 52.6435 172.63 50.2336Z" stroke="white" stroke-width="2.61114"/>
<path opacity="0.206897" d="M197.837 34.501C202.205 32.464 207.453 32.3383 213.554 34.1422C219.666 35.9491 226.553 39.6715 234.087 45.2062C249.153 56.2748 266.583 74.4253 285.267 98.308C322.621 146.057 364.807 216.484 402.945 298.271C441.083 380.058 467.917 457.645 480.484 516.952C486.769 546.616 489.47 571.635 488.264 590.291C487.662 599.62 486.086 607.289 483.541 613.132C481.001 618.966 477.532 622.905 473.164 624.942C468.795 626.979 463.548 627.104 457.447 625.301C451.335 623.494 444.447 619.771 436.914 614.237C421.847 603.168 404.418 585.017 385.734 561.135C348.38 513.386 306.193 442.959 268.055 361.172C229.917 279.384 203.084 201.798 190.517 142.491C184.231 112.827 181.531 87.8078 182.736 69.1514C183.339 59.8226 184.915 52.1538 187.459 46.3104C189.999 40.477 193.468 36.538 197.837 34.501Z" stroke="white" stroke-width="2.61114"/>
<path opacity="0.241379" d="M224.091 21.0142C228.62 19.3657 233.858 19.6978 239.779 22.0265C245.71 24.3592 252.247 28.6678 259.27 34.8381C273.314 47.1777 289.096 66.7782 305.627 92.1984C338.677 143.021 374.565 216.857 405.43 301.657C436.294 386.457 456.264 466.087 463.614 526.264C467.29 556.363 467.8 581.522 464.973 600.002C463.559 609.243 461.321 616.745 458.277 622.345C455.238 627.934 451.439 631.556 446.91 633.204C442.381 634.853 437.142 634.521 431.221 632.192C425.29 629.859 418.753 625.551 411.731 619.381C397.686 607.041 381.905 587.44 365.374 562.02C332.323 511.198 296.435 437.362 265.571 352.562C234.706 267.762 214.737 188.131 207.387 127.955C203.711 97.8558 203.201 72.6969 206.028 54.2167C207.441 44.9758 209.679 37.4735 212.723 31.8741C215.762 26.2843 219.562 22.6627 224.091 21.0142Z" stroke="white" stroke-width="2.61114"/>
<path opacity="0.275862" d="M251.192 9.85941C255.848 8.61193 261.037 9.39935 266.733 12.2353C272.438 15.076 278.574 19.9379 285.033 26.6968C297.948 40.2135 311.961 61.1148 326.214 87.8791C354.709 141.389 384.025 218.072 407.382 305.239C430.738 392.406 443.691 473.474 445.768 534.062C446.807 564.367 445.122 589.475 440.695 607.638C438.482 616.721 435.599 623.999 432.078 629.312C428.564 634.616 424.463 637.893 419.807 639.14C415.152 640.388 409.962 639.6 404.267 636.764C398.561 633.924 392.425 629.062 385.967 622.303C373.051 608.786 359.038 587.885 344.786 561.12C316.291 507.611 286.974 430.928 263.618 343.76C240.262 256.593 227.309 175.525 225.231 114.937C224.192 84.6324 225.877 59.5248 230.304 41.3613C232.518 32.2788 235.401 25.0001 238.921 19.6873C242.436 14.3836 246.536 11.1069 251.192 9.85941Z" stroke="white" stroke-width="2.61114"/>
<path opacity="0.310345" d="M278.936 1.09773C283.682 0.260761 288.783 1.49749 294.21 4.81901C299.646 8.1462 305.335 13.5244 311.18 20.8204C322.868 35.4114 335.006 57.4545 346.872 85.3591C370.595 141.149 393.116 220.095 408.787 308.966C424.457 397.837 430.295 479.726 427.084 540.264C425.478 570.544 421.611 595.41 415.618 613.118C412.621 621.973 409.114 628.973 405.144 633.959C401.181 638.936 396.81 641.843 392.064 642.68C387.317 643.517 382.216 642.28 376.789 638.958C371.353 635.631 365.664 630.253 359.819 622.957C348.131 608.366 335.993 586.323 324.127 558.418C300.404 502.629 277.883 423.682 262.213 334.811C246.542 245.94 240.704 164.052 243.915 103.513C245.522 73.233 249.388 48.3678 255.381 30.6592C258.378 21.8042 261.885 14.8045 265.855 9.81878C269.818 4.84157 274.189 1.93469 278.936 1.09773Z" stroke="white" stroke-width="2.61114"/>
<path opacity="0.344828" d="M307.11 -5.22254C311.911 -5.64262 316.885 -3.966 322.002 -0.184157C327.127 3.60414 332.326 9.45773 337.512 17.2354C347.885 32.7895 358.055 55.8066 367.444 84.6392C386.214 142.284 401.769 222.893 409.634 312.792C417.499 402.69 416.178 484.776 407.703 544.804C403.464 574.829 397.445 599.263 389.931 616.382C386.174 624.942 382.07 631.609 377.681 636.23C373.299 640.843 368.692 643.358 363.89 643.778C359.088 644.198 354.114 642.521 348.998 638.739C343.873 634.951 338.674 629.097 333.487 621.32C323.115 605.766 312.945 582.749 303.556 553.916C284.786 496.271 269.231 415.662 261.366 325.763C253.5 235.865 254.822 153.779 263.297 93.7509C267.536 63.726 273.555 39.2925 281.069 22.1735C284.826 13.6134 288.929 6.94601 293.319 2.32527C297.701 -2.28757 302.308 -4.80246 307.11 -5.22254Z" stroke="white" stroke-width="2.61114"/>
<path opacity="0.37931" d="M335.5 -9.07391C340.32 -9.07391 345.129 -6.97015 349.896 -2.75677C354.672 1.46381 359.341 7.74823 363.83 15.9483C372.807 32.3472 380.933 56.1632 387.772 85.7043C401.447 144.766 409.918 226.424 409.918 316.666C409.918 406.908 401.447 488.566 387.772 547.627C380.933 577.168 372.807 600.984 363.83 617.383C359.341 625.583 354.672 631.868 349.896 636.088C345.129 640.302 340.32 642.405 335.5 642.405C330.68 642.405 325.871 640.302 321.104 636.088C316.328 631.868 311.659 625.583 307.171 617.383C298.193 600.984 290.068 577.168 283.228 547.627C269.553 488.566 261.083 406.908 261.083 316.666C261.083 226.424 269.553 144.766 283.228 85.7043C290.068 56.1632 298.193 32.3472 307.171 15.9483C311.659 7.74823 316.328 1.46381 321.104 -2.75677C325.871 -6.97015 330.68 -9.07391 335.5 -9.07391Z" stroke="white" stroke-width="2.61114"/>
<path opacity="0.413793" d="M363.89 -10.4462C368.692 -10.0262 373.299 -7.51127 377.681 -2.89843C382.071 1.72231 386.174 8.38975 389.931 16.9498C397.445 34.0688 403.464 58.5023 407.703 88.5272C416.179 148.556 417.5 230.641 409.635 320.54C401.769 410.439 386.214 491.047 367.444 548.692C358.056 577.525 347.885 600.542 337.513 616.096C332.326 623.874 327.127 629.727 322.002 633.516C316.886 637.297 311.912 638.974 307.11 638.554C302.309 638.134 297.701 635.619 293.319 631.006C288.93 626.385 284.826 619.718 281.069 611.158C273.556 594.039 267.536 569.605 263.297 539.581C254.822 479.552 253.501 397.467 261.366 307.568C269.231 217.669 284.786 137.06 303.556 79.4155C312.945 50.5829 323.116 27.5658 333.488 12.0117C338.674 4.23403 343.873 -1.61956 348.998 -5.40786C354.115 -9.1897 359.089 -10.8663 363.89 -10.4462Z" stroke="white" stroke-width="2.61114"/>
<path opacity="0.448276" d="M392.065 -9.34856C396.811 -8.5116 401.182 -5.60473 405.145 -0.627515C409.115 4.35822 412.622 11.3579 415.619 20.2129C421.612 37.9215 425.478 62.7867 427.085 93.0668C430.296 153.606 424.458 235.494 408.787 324.365C393.117 413.236 370.596 492.182 346.873 547.972C335.007 575.877 322.869 597.92 311.181 612.511C305.336 619.807 299.647 625.185 294.211 628.512C288.784 631.834 283.683 633.07 278.936 632.233C274.19 631.396 269.819 628.489 265.856 623.512C261.886 618.527 258.379 611.527 255.382 602.672C249.389 584.963 245.522 560.098 243.916 529.818C240.705 469.279 246.543 387.391 262.214 298.52C277.884 209.649 300.405 130.702 324.128 74.9128C335.994 47.0082 348.132 24.9651 359.82 10.3741C365.665 3.07811 371.354 -2.30009 376.79 -5.62728C382.217 -8.9488 387.318 -10.1855 392.065 -9.34856Z" stroke="white" stroke-width="2.61114"/>
<path opacity="0.482759" d="M419.808 -5.80796C424.464 -4.56048 428.564 -1.28374 432.079 4.01995C435.599 9.33273 438.482 16.6114 440.696 25.6939C445.123 43.8575 446.808 68.9651 445.769 99.2699C443.691 159.858 430.738 240.926 407.382 328.093C384.026 415.26 354.709 491.943 326.214 545.453C311.962 572.217 297.949 593.119 285.033 606.635C278.575 613.394 272.439 618.256 266.733 621.097C261.038 623.933 255.848 624.72 251.193 623.473C246.537 622.225 242.436 618.949 238.922 613.645C235.401 608.332 232.518 601.053 230.305 591.971C225.878 573.807 224.193 548.7 225.232 518.395C227.309 457.807 240.262 376.739 263.619 289.572C286.975 202.404 316.291 125.721 344.786 72.2117C359.039 45.4475 373.052 24.5461 385.967 11.0294C392.426 4.27054 398.562 -0.591334 404.267 -3.43209C409.963 -6.26802 415.152 -7.05544 419.808 -5.80796Z" stroke="white" stroke-width="2.61114"/>
<path opacity="0.517241" d="M446.909 0.125743C451.438 1.77424 455.238 5.39591 458.277 10.9857C461.321 16.5851 463.559 24.0874 464.972 33.3282C467.799 51.8085 467.289 76.9674 463.613 107.066C456.263 167.243 436.294 246.873 405.429 331.673C374.565 416.473 338.677 490.309 305.626 541.132C289.095 566.552 273.314 586.153 259.269 598.492C252.247 604.662 245.71 608.971 239.779 611.304C233.858 613.632 228.619 613.965 224.09 612.316C219.561 610.668 215.762 607.046 212.723 601.456C209.679 595.857 207.441 588.354 206.027 579.114C203.2 560.633 203.71 535.474 207.386 505.375C214.736 445.199 234.706 365.569 265.57 280.769C296.435 195.969 332.323 122.132 365.373 71.31C381.904 45.8898 397.686 26.2893 411.73 13.9496C418.753 7.77936 425.29 3.47081 431.221 1.1381C437.142 -1.19064 442.38 -1.52276 446.909 0.125743Z" stroke="white" stroke-width="2.61114"/>
<path opacity="0.551724" d="M473.163 8.38989C477.531 10.4269 481 14.3659 483.54 20.1993C486.085 26.0427 487.66 33.7115 488.263 43.0403C489.469 61.6967 486.768 86.7154 480.483 116.379C467.916 175.686 441.082 253.273 402.944 335.06C364.806 416.848 322.62 487.275 285.266 535.024C266.582 558.906 249.152 577.057 234.086 588.125C226.552 593.66 219.665 597.383 213.553 599.19C207.451 600.993 202.204 600.868 197.836 598.831C193.467 596.794 189.998 592.855 187.458 587.021C184.914 581.178 183.338 573.509 182.735 564.18C181.53 545.524 184.23 520.505 190.516 490.841C203.083 431.534 229.916 353.947 268.054 272.16C306.192 190.373 348.379 119.945 385.733 72.1969C404.416 48.3142 421.846 30.1637 436.913 19.0951C444.446 13.5604 451.334 9.83794 457.446 8.03104C463.547 6.2272 468.794 6.35291 473.163 8.38989Z" stroke="white" stroke-width="2.61114"/>
<path opacity="0.586207" d="M498.37 18.9C502.544 21.3099 505.657 25.5363 507.679 31.5689C509.705 37.6118 510.606 45.3888 510.393 54.7346C509.968 73.425 505.097 98.1132 496.25 127.117C478.562 185.103 445.069 260.055 399.948 338.208C354.827 416.36 306.662 482.842 265.289 527.153C244.595 549.317 225.65 565.879 209.676 575.593C201.688 580.45 194.503 583.558 188.257 584.825C182.021 586.09 176.805 585.508 172.631 583.098C168.456 580.688 165.344 576.461 163.322 570.429C161.296 564.386 160.395 556.609 160.607 547.263C161.033 528.573 165.903 503.884 174.75 474.881C192.438 416.895 225.932 341.942 271.053 263.79C316.174 185.638 364.338 119.155 405.712 74.8442C426.406 52.6807 445.351 36.1184 461.325 26.405C469.312 21.548 476.498 18.44 482.744 17.1726C488.979 15.9074 494.196 16.49 498.37 18.9Z" stroke="white" stroke-width="2.61114"/>
<path opacity="0.62069" d="M522.336 31.5579C526.285 34.3225 529.017 38.8041 530.506 44.9899C531.997 51.1864 532.217 59.0123 531.191 68.3041C529.138 86.8863 522.134 111.056 510.793 139.178C488.118 195.402 448.22 267.15 396.459 341.072C344.698 414.994 290.923 477.026 245.845 517.563C223.298 537.838 202.981 552.686 186.222 560.971C177.841 565.113 170.412 567.583 164.079 568.301C157.757 569.018 152.611 567.983 148.663 565.218C144.715 562.454 141.982 557.972 140.494 551.786C139.003 545.59 138.783 537.764 139.809 528.472C141.862 509.89 148.866 485.72 160.207 457.598C182.881 401.375 222.78 329.626 274.541 255.704C326.301 181.782 380.077 119.75 425.155 79.2135C447.702 58.938 468.018 44.0899 484.778 35.8057C493.158 31.6633 500.588 29.1934 506.92 28.4752C513.242 27.7583 518.388 28.7933 522.336 31.5579Z" stroke="white" stroke-width="2.61114"/>
<path opacity="0.655172" d="M544.882 46.2452C548.574 49.3433 550.906 54.0461 551.85 60.3381C552.795 66.6409 552.332 74.4562 550.5 83.6232C546.835 101.956 537.752 125.423 524.003 152.45C496.514 206.483 450.514 274.481 392.508 343.611C334.501 412.74 275.524 469.849 227.084 506.303C202.856 524.536 181.323 537.557 163.905 544.349C155.195 547.745 147.579 549.558 141.208 549.722C134.848 549.885 129.811 548.405 126.119 545.307C122.427 542.209 120.095 537.506 119.152 531.214C118.206 524.912 118.669 517.096 120.501 507.929C124.166 489.597 133.249 466.129 146.998 439.103C174.487 385.069 220.487 317.071 278.493 247.942C336.5 178.812 395.477 121.703 443.917 85.2495C468.145 67.0163 489.678 53.9954 507.096 47.2034C515.806 43.8071 523.422 41.9941 529.793 41.8306C536.154 41.6674 541.19 43.147 544.882 46.2452Z" stroke="white" stroke-width="2.61114"/>
<path opacity="0.689655" d="M565.832 62.8326C569.241 66.2408 571.153 71.1288 571.545 77.4792C571.938 83.8404 570.795 91.5856 568.171 100.558C562.923 118.502 551.828 141.088 535.776 166.813C503.683 218.245 451.932 281.976 388.121 345.786C324.31 409.597 260.58 461.349 209.147 493.442C183.422 509.494 160.836 520.589 142.892 525.837C133.92 528.461 126.175 529.603 119.813 529.211C113.463 528.819 108.575 526.906 105.167 523.498C101.759 520.09 99.8458 515.202 99.4541 508.852C99.0617 502.49 100.204 494.745 102.828 485.773C108.076 467.829 119.171 445.243 135.223 419.518C167.316 368.085 219.068 304.355 282.879 240.544C346.689 176.733 410.42 124.982 461.852 92.8888C487.577 76.8366 510.163 65.742 528.107 60.4939C537.079 57.8697 544.825 56.7274 551.186 57.1198C557.536 57.5115 562.424 59.4244 565.832 62.8326Z" stroke="white" stroke-width="2.61114"/>
<path opacity="0.724138" d="M585.032 81.173C588.13 84.8653 589.609 89.9014 589.446 96.2617C589.283 102.633 587.47 110.249 584.073 118.959C577.282 136.377 564.261 157.91 546.027 182.138C509.574 230.578 452.465 289.555 383.335 347.562C314.206 405.568 246.208 451.568 192.174 479.056C165.148 492.806 141.68 501.889 123.348 505.554C114.181 507.386 106.365 507.849 100.063 506.903C93.7705 505.96 89.0678 503.628 85.9696 499.936C82.8714 496.244 81.3918 491.207 81.5551 484.847C81.7185 478.476 83.5315 470.86 86.9278 462.15C93.7198 444.732 106.741 423.199 124.974 398.971C161.428 350.531 218.536 291.554 287.666 233.547C356.796 175.541 424.794 129.541 478.827 102.052C505.854 88.3033 529.321 79.2195 547.654 75.5552C556.821 73.723 564.636 73.26 570.939 74.2054C577.231 75.1491 581.934 77.4808 585.032 81.173Z" stroke="white" stroke-width="2.61114"/>
<path opacity="0.758621" d="M602.33 101.106C605.095 105.054 606.13 110.2 605.413 116.522C604.695 122.855 602.225 130.284 598.082 138.665C589.798 155.424 574.95 175.741 554.674 198.288C514.138 243.366 452.106 297.141 378.184 348.902C304.262 400.663 232.513 440.561 176.289 463.236C148.168 474.577 123.998 481.581 105.416 483.633C96.1238 484.66 88.2979 484.44 82.1014 482.949C75.9156 481.46 71.434 478.728 68.6694 474.779C65.9048 470.831 64.8698 465.685 65.5867 459.363C66.3049 453.031 68.7748 445.601 72.9172 437.221C81.2014 420.461 96.0495 400.145 116.325 377.598C156.862 332.52 218.894 278.744 292.816 226.984C366.738 175.223 438.486 135.324 494.71 112.65C522.832 101.309 547.002 94.3046 565.584 92.2521C574.876 91.2257 582.701 91.4457 588.898 92.9368C595.084 94.4253 599.565 97.158 602.33 101.106Z" stroke="white" stroke-width="2.61114"/>
<path opacity="0.793103" d="M617.599 122.462C620.009 126.636 620.592 131.853 619.327 138.088C618.059 144.334 614.951 151.52 610.094 159.507C600.381 175.481 583.818 194.426 561.655 215.12C517.344 256.494 450.861 304.658 372.709 349.779C294.557 394.9 219.604 428.394 161.618 446.082C132.615 454.929 107.927 459.8 89.2362 460.225C79.8903 460.437 72.1134 459.536 66.0705 457.511C60.038 455.489 55.8115 452.376 53.4016 448.202C50.9917 444.028 50.4091 438.811 51.6742 432.576C52.9416 426.33 56.0496 419.144 60.9066 411.156C70.62 395.183 87.1824 376.237 109.346 355.543C153.657 314.17 220.14 266.006 298.292 220.884C376.444 175.763 451.397 142.27 509.383 124.582C538.386 115.735 563.074 110.864 581.765 110.439C591.11 110.226 598.887 111.128 604.93 113.153C610.963 115.175 615.189 118.288 617.599 122.462Z" stroke="white" stroke-width="2.61114"/>
<path opacity="0.827586" d="M630.721 145.057C632.758 149.425 632.883 154.673 631.08 160.774C629.273 166.886 625.55 173.773 620.015 181.307C608.947 196.374 590.796 213.803 566.914 232.487C519.165 269.841 448.738 312.028 366.95 350.166C285.163 388.304 207.576 415.137 148.269 427.704C118.605 433.989 93.5867 436.69 74.9303 435.485C65.6015 434.882 57.9327 433.306 52.0893 430.762C46.2559 428.222 42.3169 424.752 40.2799 420.384C38.2429 416.016 38.1172 410.768 39.921 404.667C41.7279 398.555 45.4504 391.668 50.9851 384.134C62.0537 369.067 80.2042 351.638 104.087 332.954C151.835 295.6 222.263 253.413 304.05 215.275C385.837 177.137 463.424 150.304 522.731 137.737C552.395 131.452 577.414 128.751 596.07 129.956C605.399 130.559 613.068 132.135 618.911 134.679C624.745 137.219 628.684 140.689 630.721 145.057Z" stroke="white" stroke-width="2.61114"/>
<path opacity="0.862069" d="M641.594 168.7C643.243 173.229 642.911 178.468 640.582 184.389C638.249 190.32 633.941 196.856 627.771 203.879C615.431 217.924 595.83 233.705 570.41 250.236C519.588 283.286 445.752 319.174 360.952 350.039C276.152 380.904 196.521 400.873 136.345 408.223C106.246 411.899 81.0869 412.409 62.6066 409.582C53.3658 408.168 45.8635 405.93 40.2641 402.886C34.6744 399.848 31.0527 396.048 29.4042 391.519C27.7557 386.99 28.0878 381.751 30.4165 375.83C32.7492 369.899 37.0578 363.362 43.2281 356.34C55.5677 342.295 75.1682 326.514 100.588 309.983C151.411 276.933 225.247 241.045 310.047 210.18C394.847 179.315 474.477 159.346 534.654 151.996C564.753 148.32 589.912 147.81 608.392 150.637C617.633 152.05 625.135 154.288 630.734 157.332C636.324 160.371 639.946 164.171 641.594 168.7Z" stroke="white" stroke-width="2.61114"/>
<path opacity="0.896552" d="M650.14 193.191C651.388 197.847 650.6 203.036 647.764 208.732C644.924 214.437 640.062 220.573 633.303 227.031C619.786 239.947 598.885 253.96 572.121 268.213C518.611 296.708 441.928 326.024 354.761 349.38C267.593 372.737 186.526 385.69 125.937 387.767C95.6327 388.806 70.525 387.121 52.3615 382.694C43.279 380.481 36.0003 377.597 30.6875 374.077C25.3839 370.562 22.1071 366.462 20.8596 361.806C19.6122 357.15 20.3996 351.961 23.2355 346.265C26.0762 340.56 30.9381 334.424 37.697 327.966C51.2137 315.05 72.1151 301.037 98.8793 286.785C152.389 258.289 229.072 228.973 316.239 205.617C403.407 182.26 484.474 169.307 545.062 167.23C575.367 166.191 600.475 167.876 618.638 172.303C627.721 174.516 635 177.4 640.312 180.92C645.616 184.435 648.893 188.535 650.14 193.191Z" stroke="white" stroke-width="2.61114"/>
<path opacity="0.931035" d="M656.291 218.323C657.128 223.07 655.891 228.171 652.57 233.597C649.242 239.033 643.864 244.723 636.568 250.567C621.977 262.256 599.934 274.394 572.03 286.259C516.24 309.982 437.294 332.504 348.422 348.174C259.551 363.844 177.663 369.683 117.124 366.471C86.8444 364.865 61.9791 360.998 44.2705 355.005C35.4155 352.009 28.4158 348.502 23.4301 344.532C18.4529 340.568 15.546 336.198 14.7091 331.451C13.8721 326.704 15.1088 321.603 18.4303 316.177C21.7575 310.741 27.1357 305.051 34.4317 299.207C49.0227 287.519 71.0658 275.381 98.9704 263.515C154.76 239.792 233.706 217.271 322.578 201.6C411.449 185.93 493.337 180.092 553.876 183.303C584.156 184.909 609.021 188.776 626.729 194.769C635.584 197.766 642.584 201.272 647.57 205.242C652.547 209.206 655.454 213.576 656.291 218.323Z" stroke="white" stroke-width="2.61114"/>
<path opacity="0.965517" d="M660 243.887C660.42 248.688 658.743 253.662 654.962 258.779C651.173 263.904 645.32 269.103 637.542 274.289C621.988 284.661 598.971 294.832 570.138 304.221C512.493 322.991 431.884 338.546 341.986 346.411C252.087 354.276 170.002 352.955 109.973 344.48C79.9482 340.241 55.5146 334.221 38.3957 326.708C29.8356 322.951 23.1682 318.847 18.5474 314.458C13.9346 310.076 11.4197 305.468 10.9997 300.667C10.5796 295.865 12.2562 290.891 16.038 285.775C19.8263 280.65 25.6799 275.451 33.4575 270.264C49.0117 259.892 72.0288 249.721 100.861 240.333C158.506 221.563 239.115 206.008 329.014 198.142C418.913 190.277 500.998 191.598 561.026 200.074C591.051 204.313 615.485 210.332 632.604 217.846C641.164 221.603 647.831 225.706 652.452 230.096C657.065 234.478 659.58 239.085 660 243.887Z" stroke="white" stroke-width="2.61114"/>
<path d="M661.24 269.665C661.24 274.485 659.136 279.294 654.923 284.061C650.702 288.837 644.418 293.506 636.217 297.995C619.819 306.972 596.003 315.098 566.461 321.938C507.4 335.612 425.742 344.083 335.5 344.083C245.258 344.083 163.6 335.612 104.539 321.938C74.9975 315.098 51.1815 306.972 34.7826 297.995C26.5825 293.506 20.2981 288.837 16.0775 284.061C11.8642 279.294 9.7604 274.485 9.7604 269.665C9.7604 264.845 11.8642 260.036 16.0775 255.269C20.2981 250.493 26.5825 245.824 34.7826 241.336C51.1815 232.359 74.9975 224.233 104.539 217.393C163.6 203.718 245.258 195.248 335.5 195.248C425.742 195.248 507.4 203.718 566.461 217.393C596.003 224.233 619.819 232.359 636.217 241.336C644.418 245.824 650.702 250.493 654.923 255.269C659.136 260.036 661.24 264.845 661.24 269.665Z" stroke="white" stroke-width="2.61114"/>
</svg>
