<svg width="48" height="49" viewBox="0 0 48 49" fill="none" xmlns="http://www.w3.org/2000/svg">
<rect x="1.52459" y="1.7011" width="45.66" height="45.66" rx="22.83" stroke="#2589AD" stroke-width="1.63071"/>
<g clip-path="url(#clip0_327_625)">
<path d="M25.6795 31.6655C25.5415 31.6655 25.4221 31.6151 25.3212 31.5142C25.2204 31.4134 25.1699 31.2939 25.1699 31.1559C25.1699 31.0179 25.2204 30.8985 25.3212 30.7976L31.5797 24.5311H17.526C17.3879 24.5311 17.2685 24.4807 17.1676 24.3799C17.0668 24.279 17.0164 24.1596 17.0164 24.0216C17.0164 23.8835 17.0668 23.7641 17.1676 23.6632C17.2685 23.5624 17.3879 23.512 17.526 23.512H31.5797L25.3212 17.2455C25.2204 17.1446 25.1699 17.0252 25.1699 16.8872C25.1699 16.7492 25.2204 16.6297 25.3212 16.5289C25.4221 16.428 25.5415 16.3776 25.6795 16.3776C25.8175 16.3776 25.937 16.428 26.0378 16.5289L33.1483 23.6394C33.2067 23.6977 33.2505 23.7561 33.2797 23.8145C33.3089 23.8729 33.3235 23.9419 33.3235 24.0216C33.3235 24.1012 33.3089 24.1702 33.2797 24.2286C33.2505 24.287 33.2067 24.3454 33.1483 24.4037L26.0378 31.5142C25.937 31.6151 25.8175 31.6655 25.6795 31.6655Z" fill="#2589AD"/>
</g>
<defs>
<clipPath id="clip0_327_625">
<rect width="16.3071" height="16.3071" fill="white" transform="matrix(1 0 0 -1 17.0164 32.6846)"/>
</clipPath>
</defs>
</svg>
