<svg width="49" height="49" viewBox="0 0 49 49" fill="none" xmlns="http://www.w3.org/2000/svg">
<rect x="46.482" y="47.5076" width="45.66" height="45.66" rx="22.83" transform="rotate(-178.713 46.482 47.5076)" stroke="#2589AD" stroke-width="1.63071"/>
<g clip-path="url(#clip0_1_5)">
<path d="M23.0061 17.0082C23.1441 17.0113 23.2624 17.0644 23.361 17.1675C23.4595 17.2706 23.5073 17.3911 23.5042 17.5291C23.5011 17.6671 23.448 17.7853 23.3449 17.8839L16.9472 24.0082L30.9974 24.3239C31.1354 24.327 31.2536 24.3801 31.3522 24.4832C31.4508 24.5863 31.4985 24.7068 31.4954 24.8448C31.4923 24.9828 31.4392 25.1011 31.3361 25.1996C31.233 25.2982 31.1125 25.3459 30.9745 25.3428L16.9243 25.0271L23.0404 31.4326C23.139 31.5357 23.1867 31.6563 23.1836 31.7942C23.1805 31.9322 23.1274 32.0505 23.0243 32.1491C22.9212 32.2476 22.8007 32.2954 22.6627 32.2923C22.5247 32.2892 22.4065 32.2361 22.3079 32.133L15.3589 24.8645C15.3019 24.8049 15.2594 24.7455 15.2315 24.6865C15.2036 24.6274 15.1906 24.5581 15.1924 24.4785C15.1942 24.3989 15.2103 24.3302 15.2408 24.2725C15.2713 24.2148 15.3164 24.1574 15.3761 24.1003L22.6445 17.1514C22.7476 17.0528 22.8681 17.0051 23.0061 17.0082Z" fill="#2589AD"/>
</g>
<defs>
<clipPath id="clip0_1_5">
<rect width="16.3071" height="16.3071" fill="white" transform="matrix(-0.999748 -0.0224624 -0.0224624 0.999748 31.69 16.184)"/>
</clipPath>
</defs>
</svg>
