<svg width="15" height="15" viewBox="0 0 15 15" fill="none" xmlns="http://www.w3.org/2000/svg">
<g clip-path="url(#clip0_327_620)">
<path d="M0.973389 12.5091C0.973389 12.3886 1.01743 12.2843 1.1055 12.1962L5.6807 7.61405L1.1055 3.0319C1.01743 2.94383 0.973389 2.83953 0.973389 2.71901C0.973389 2.59848 1.01743 2.49419 1.1055 2.40611C1.19357 2.31804 1.29787 2.274 1.41839 2.274C1.53891 2.274 1.64321 2.31804 1.73129 2.40611L6.62633 7.30116C6.71441 7.38923 6.75844 7.49353 6.75844 7.61405C6.75844 7.73457 6.71441 7.83887 6.62633 7.92695L1.73129 12.822C1.64321 12.9101 1.53891 12.9541 1.41839 12.9541C1.29787 12.9541 1.19357 12.9101 1.1055 12.822C1.01743 12.7339 0.973389 12.6296 0.973389 12.5091Z" fill="white"/>
</g>
<defs>
<clipPath id="clip0_327_620">
<rect width="13.9553" height="14.2401" fill="white" transform="matrix(1 0 0 -1 0.973389 14.7339)"/>
</clipPath>
</defs>
</svg>
