<svg width="15" height="16" viewBox="0 0 15 16" fill="none" xmlns="http://www.w3.org/2000/svg">
<path d="M5.625 2.28516V1.03516H9.375V2.28516H5.625ZM6.875 9.16016H8.125V5.41016H6.875V9.16016ZM7.5 14.1602C6.72917 14.1602 6.0025 14.0118 5.32 13.7152C4.6375 13.4185 4.04125 13.0147 3.53125 12.5039C3.02083 11.9935 2.61729 11.397 2.32063 10.7145C2.02396 10.032 1.87542 9.30557 1.875 8.53516C1.875 7.76432 2.02354 7.03766 2.32063 6.35516C2.61771 5.67266 3.02125 5.07641 3.53125 4.56641C4.04167 4.05599 4.63812 3.65245 5.32062 3.35578C6.00312 3.05911 6.72958 2.91057 7.5 2.91016C8.14583 2.91016 8.76563 3.01432 9.35938 3.22266C9.95312 3.43099 10.5104 3.73307 11.0312 4.12891L11.9062 3.25391L12.7812 4.12891L11.9062 5.00391C12.3021 5.52474 12.6042 6.08203 12.8125 6.67578C13.0208 7.26953 13.125 7.88932 13.125 8.53516C13.125 9.30599 12.9765 10.0327 12.6794 10.7152C12.3823 11.3977 11.9788 11.9939 11.4688 12.5039C10.9583 13.0143 10.3619 13.4181 9.67938 13.7152C8.99688 14.0122 8.27042 14.1606 7.5 14.1602ZM7.5 12.9102C8.70833 12.9102 9.73958 12.4831 10.5938 11.6289C11.4479 10.7747 11.875 9.74349 11.875 8.53516C11.875 7.32682 11.4479 6.29557 10.5938 5.44141C9.73958 4.58724 8.70833 4.16016 7.5 4.16016C6.29167 4.16016 5.26042 4.58724 4.40625 5.44141C3.55208 6.29557 3.125 7.32682 3.125 8.53516C3.125 9.74349 3.55208 10.7747 4.40625 11.6289C5.26042 12.4831 6.29167 12.9102 7.5 12.9102Z" fill="#2589AD"/>
</svg>
