<svg width="91" height="90" viewBox="0 0 91 90" fill="none" xmlns="http://www.w3.org/2000/svg">
<g filter="url(#filter0_d_947_862)">
<g clip-path="url(#clip0_947_862)">
<rect x="4.62988" y="2" width="82" height="82" rx="4" fill="white"/>
<g clip-path="url(#clip1_947_862)">
<path d="M71.3487 69.6715C65.5857 76.5399 55.3456 77.4353 48.4772 71.6723C41.6073 65.9094 40.7118 55.6692 46.4764 48.7993C52.2394 41.9309 62.4796 41.0355 69.3479 46.7985C76.2162 52.5631 77.1116 62.8032 71.3487 69.6715Z" fill="#AAD4F7"/>
<path d="M46.2583 37.2009C40.4953 44.0692 30.2552 44.9647 23.3868 39.2017C16.5185 33.4387 15.6214 23.1986 21.386 16.3303C27.149 9.4603 37.3892 8.56486 44.2575 14.3295C51.1258 20.0924 52.0212 30.3326 46.2583 37.2009Z" fill="#AAD4F7"/>
<path d="M65.4571 12.7339C67.7645 10.4281 70.9674 9.89345 72.614 11.54L80.0695 18.9954L25.8019 73.263C23.4944 75.5689 20.2915 76.1035 18.6433 74.457L11.1895 67.0032L65.4571 12.7339Z" fill="#2159A6"/>
<path d="M55.7551 43.3083L42.9795 56.0822C43.5083 53.3973 44.7102 50.8907 46.4727 48.7974C48.8472 45.9586 52.1237 44.0221 55.7551 43.3083Z" fill="#005E7A"/>
<path d="M35.2588 42.9375C37.3794 42.7517 39.4426 42.1494 41.33 41.165C43.2175 40.1806 44.8922 38.8335 46.2583 37.2008C48.3997 34.657 49.7043 31.5146 49.9942 28.2021L35.2588 42.9375Z" fill="#2159A6"/>
</g>
</g>
</g>
<defs>
<filter id="filter0_d_947_862" x="0.629883" y="0" width="90" height="90" filterUnits="userSpaceOnUse" color-interpolation-filters="sRGB">
<feFlood flood-opacity="0" result="BackgroundImageFix"/>
<feColorMatrix in="SourceAlpha" type="matrix" values="0 0 0 0 0 0 0 0 0 0 0 0 0 0 0 0 0 0 127 0" result="hardAlpha"/>
<feOffset dy="2"/>
<feGaussianBlur stdDeviation="2"/>
<feComposite in2="hardAlpha" operator="out"/>
<feColorMatrix type="matrix" values="0 0 0 0 0 0 0 0 0 0 0 0 0 0 0 0 0 0 0.075 0"/>
<feBlend mode="normal" in2="BackgroundImageFix" result="effect1_dropShadow_947_862"/>
<feBlend mode="normal" in="SourceGraphic" in2="effect1_dropShadow_947_862" result="shape"/>
</filter>
<clipPath id="clip0_947_862">
<rect x="4.62988" y="2" width="82" height="82" rx="4" fill="white"/>
</clipPath>
<clipPath id="clip1_947_862">
<rect width="82" height="82" fill="white" transform="translate(4.62988 2)"/>
</clipPath>
</defs>
</svg>
