<svg width="91" height="90" viewBox="0 0 91 90" fill="none" xmlns="http://www.w3.org/2000/svg">
<g filter="url(#filter0_d_947_1270)">
<g clip-path="url(#clip0_947_1270)">
<rect x="4.04297" y="2" width="82" height="82" rx="4" fill="white"/>
<path d="M64.4916 30.1311L67.8578 36.4705L75.0573 37.3453L69.7744 42.1062L70.831 49.1493L64.4916 45.1871L58.1522 49.1493L59.2088 42.1062L53.926 37.3453L61.3219 36.4705L64.4916 30.1311ZM58.1522 72.3937H53.926V61.828C53.9226 59.0269 52.8084 56.3414 50.8277 54.3607C48.8469 52.38 46.1615 51.2657 43.3603 51.2624H30.6815C27.8804 51.2657 25.1949 52.38 23.2142 54.3607C21.2335 56.3414 20.1193 59.0269 20.1159 61.828V72.3937H15.8896V61.828C15.8941 57.9063 17.454 54.1466 20.227 51.3735C23.0001 48.6005 26.7599 47.0406 30.6815 47.0361H43.3603C47.282 47.0406 51.0418 48.6005 53.8148 51.3735C56.5879 54.1466 58.1477 57.9063 58.1522 61.828V72.3937ZM37.0209 17.4523C39.1106 17.4523 41.1534 18.072 42.8909 19.233C44.6284 20.3939 45.9826 22.0441 46.7823 23.9747C47.582 25.9053 47.7912 28.0297 47.3836 30.0792C46.9759 32.1288 45.9696 34.0114 44.492 35.489C43.0143 36.9666 41.1317 37.9729 39.0822 38.3806C37.0327 38.7883 34.9083 38.579 32.9776 37.7794C31.047 36.9797 29.3969 35.6254 28.2359 33.8879C27.075 32.1504 26.4553 30.1077 26.4553 28.018C26.4553 25.2158 27.5685 22.5284 29.5499 20.5469C31.5313 18.5655 34.2188 17.4523 37.0209 17.4523ZM37.0209 13.2261C34.0954 13.2261 31.2355 14.0936 28.803 15.719C26.3705 17.3443 24.4746 19.6545 23.355 22.3574C22.2354 25.0602 21.9425 28.0344 22.5133 30.9037C23.084 33.7731 24.4928 36.4087 26.5615 38.4774C28.6302 40.5461 31.2658 41.9549 34.1352 42.5257C37.0045 43.0964 39.9787 42.8035 42.6816 41.6839C45.3844 40.5643 47.6946 38.6684 49.32 36.2359C50.9453 33.8034 51.8128 30.9435 51.8128 28.018C51.8128 24.0949 50.2544 20.3325 47.4804 17.5585C44.7064 14.7845 40.944 13.2261 37.0209 13.2261Z" fill="#2589AD"/>
</g>
</g>
<defs>
<filter id="filter0_d_947_1270" x="0.0429688" y="0" width="90" height="90" filterUnits="userSpaceOnUse" color-interpolation-filters="sRGB">
<feFlood flood-opacity="0" result="BackgroundImageFix"/>
<feColorMatrix in="SourceAlpha" type="matrix" values="0 0 0 0 0 0 0 0 0 0 0 0 0 0 0 0 0 0 127 0" result="hardAlpha"/>
<feOffset dy="2"/>
<feGaussianBlur stdDeviation="2"/>
<feComposite in2="hardAlpha" operator="out"/>
<feColorMatrix type="matrix" values="0 0 0 0 0 0 0 0 0 0 0 0 0 0 0 0 0 0 0.075 0"/>
<feBlend mode="normal" in2="BackgroundImageFix" result="effect1_dropShadow_947_1270"/>
<feBlend mode="normal" in="SourceGraphic" in2="effect1_dropShadow_947_1270" result="shape"/>
</filter>
<clipPath id="clip0_947_1270">
<rect x="4.04297" y="2" width="82" height="82" rx="4" fill="white"/>
</clipPath>
</defs>
</svg>
