<svg width="83" height="82" viewBox="0 0 83 82" fill="none" xmlns="http://www.w3.org/2000/svg">
<path d="M60.4916 28.1311L63.8578 34.4705L71.0573 35.3453L65.7744 40.1062L66.831 47.1493L60.4916 43.1871L54.1522 47.1493L55.2088 40.1062L49.926 35.3453L57.3219 34.4705L60.4916 28.1311ZM54.1522 70.3937H49.926V59.828C49.9226 57.0269 48.8084 54.3414 46.8277 52.3607C44.8469 50.38 42.1615 49.2657 39.3603 49.2624H26.6815C23.8804 49.2657 21.1949 50.38 19.2142 52.3607C17.2335 54.3414 16.1193 57.0269 16.1159 59.828V70.3937H11.8896V59.828C11.8941 55.9063 13.454 52.1466 16.227 49.3735C19.0001 46.6005 22.7599 45.0406 26.6815 45.0361H39.3603C43.282 45.0406 47.0418 46.6005 49.8148 49.3735C52.5879 52.1466 54.1477 55.9063 54.1522 59.828V70.3937ZM33.0209 15.4523C35.1106 15.4523 37.1534 16.072 38.8909 17.233C40.6284 18.3939 41.9826 20.0441 42.7823 21.9747C43.582 23.9053 43.7912 26.0297 43.3836 28.0792C42.9759 30.1288 41.9696 32.0114 40.492 33.489C39.0143 34.9666 37.1317 35.9729 35.0822 36.3806C33.0327 36.7883 30.9083 36.579 28.9776 35.7794C27.047 34.9797 25.3969 33.6254 24.2359 31.8879C23.075 30.1504 22.4553 28.1077 22.4553 26.018C22.4553 23.2158 23.5685 20.5284 25.5499 18.5469C27.5313 16.5655 30.2188 15.4523 33.0209 15.4523ZM33.0209 11.2261C30.0954 11.2261 27.2355 12.0936 24.803 13.719C22.3705 15.3443 20.4746 17.6545 19.355 20.3574C18.2354 23.0602 17.9425 26.0344 18.5133 28.9037C19.084 31.7731 20.4928 34.4087 22.5615 36.4774C24.6302 38.5461 27.2658 39.9549 30.1352 40.5257C33.0045 41.0964 35.9787 40.8035 38.6816 39.6839C41.3844 38.5643 43.6946 36.6684 45.32 34.2359C46.9453 31.8034 47.8128 28.9435 47.8128 26.018C47.8128 22.0949 46.2544 18.3325 43.4804 15.5585C40.7064 12.7845 36.944 11.2261 33.0209 11.2261Z" fill="#2589AD"/>
</svg>
