<svg width="19" height="19" viewBox="0 0 19 19" fill="none" xmlns="http://www.w3.org/2000/svg">
<path fill-rule="evenodd" clip-rule="evenodd" d="M9.57102 1.73926C5.43818 1.73926 2.08398 5.09345 2.08398 9.22629C2.08398 13.3591 5.43818 16.7133 9.57102 16.7133C13.7039 16.7133 17.0581 13.3591 17.0581 9.22629C17.0581 5.09345 13.7039 1.73926 9.57102 1.73926ZM9.57102 15.2159C6.26924 15.2159 3.58139 12.5281 3.58139 9.22629C3.58139 5.92451 6.26924 3.23667 9.57102 3.23667C12.8728 3.23667 15.5606 5.92451 15.5606 9.22629C15.5606 12.5281 12.8728 15.2159 9.57102 15.2159ZM8.07361 10.851L12.476 6.4486C12.768 6.15661 13.2472 6.15661 13.5391 6.4486C13.8311 6.7406 13.8311 7.21228 13.5391 7.50428L8.60519 12.4382C8.3132 12.7302 7.84152 12.7302 7.54952 12.4382L5.61038 10.4991C5.31838 10.2071 5.31838 9.73541 5.61038 9.44342C5.75026 9.30319 5.94017 9.22442 6.13821 9.22442C6.33626 9.22442 6.52617 9.30319 6.66605 9.44342L8.07361 10.851Z" fill="#AAD4F7"/>
</svg>
