<svg width="91" height="90" viewBox="0 0 91 90" fill="none" xmlns="http://www.w3.org/2000/svg">
<g filter="url(#filter0_d_947_1205)">
<rect x="4.62988" y="2" width="82" height="82" rx="4" fill="white"/>
<g clip-path="url(#clip0_947_1205)">
<path d="M72.4296 58.8762L75.2146 56.4333L72.7716 52.2071L69.2294 53.4041C68.4451 52.7431 67.5526 52.2224 66.5911 51.8651L65.8582 48.2007H60.9724L60.2395 51.8407C59.278 52.1979 58.3854 52.7186 57.6012 53.3797L54.0589 52.1827L51.616 56.4089L54.4009 58.8518C54.2055 59.8685 54.2055 60.9132 54.4009 61.9299L51.616 64.3728L54.0589 68.599L57.6012 67.402C58.3854 68.0632 59.278 68.5838 60.2395 68.941L60.9724 72.6298H65.8582L66.5911 68.9899C67.5526 68.6326 68.4451 68.112 69.2294 67.4509L72.7716 68.6479L75.2146 64.4217L72.4296 61.9787C72.6251 60.9538 72.6251 59.9012 72.4296 58.8762ZM63.4153 65.3011C62.449 65.3011 61.5043 65.0146 60.7009 64.4777C59.8974 63.9408 59.2712 63.1778 58.9014 62.285C58.5316 61.3922 58.4348 60.4099 58.6233 59.4621C58.8119 58.5143 59.2772 57.6438 59.9605 56.9605C60.6438 56.2772 61.5144 55.8119 62.4621 55.6233C63.4099 55.4348 64.3922 55.5316 65.285 55.9014C66.1778 56.2712 66.9408 56.8974 67.4777 57.7009C68.0146 58.5043 68.3011 59.449 68.3011 60.4153C68.2972 61.7099 67.7812 62.9504 66.8658 63.8658C65.9504 64.7812 64.7099 65.2972 63.4153 65.3011ZM73.1869 40.872H19.4429V16.4429H73.1869V40.872ZM24.3287 35.9862H68.3011V21.3287H24.3287V35.9862ZM48.7578 26.2145H26.7716V31.1003H48.7578V26.2145ZM56.0865 26.2145C55.6034 26.2145 55.1311 26.3578 54.7293 26.6262C54.3276 26.8947 54.0145 27.2762 53.8296 27.7226C53.6447 28.169 53.5963 28.6601 53.6906 29.134C53.7848 29.6079 54.0175 30.0432 54.3591 30.3848C54.7008 30.7265 55.1361 30.9591 55.61 31.0534C56.0838 31.1477 56.575 31.0993 57.0214 30.9144C57.4678 30.7295 57.8493 30.4164 58.1178 30.0146C58.3862 29.6129 58.5295 29.1406 58.5295 28.6574C58.5295 28.0095 58.2721 27.3882 57.8139 26.93C57.3558 26.4719 56.7345 26.2145 56.0865 26.2145ZM63.4153 26.2145C62.9321 26.2145 62.4598 26.3578 62.0581 26.6262C61.6563 26.8947 61.3432 27.2762 61.1583 27.7226C60.9734 28.169 60.9251 28.6601 61.0193 29.134C61.1136 29.6079 61.3462 30.0432 61.6879 30.3848C62.0295 30.7265 62.4648 30.9591 62.9387 31.0534C63.4126 31.1477 63.9038 31.0993 64.3501 30.9144C64.7965 30.7295 65.1781 30.4164 65.4465 30.0146C65.7149 29.6129 65.8582 29.1406 65.8582 28.6574C65.8582 28.0095 65.6008 27.3882 65.1427 26.93C64.6846 26.4719 64.0632 26.2145 63.4153 26.2145Z" fill="#1D59A0"/>
<path d="M47.0331 65.3011H24.3287V50.6436H49.393C50.7786 48.6638 52.5668 46.9989 54.6403 45.7578H19.4429V70.1869H49.393C48.35 68.6951 47.5532 67.0455 47.0331 65.3011Z" fill="#2589AD"/>
<path d="M26.7715 60.4156H46.3148C46.3163 58.7608 46.5582 57.115 47.033 55.5298H26.7715V60.4156Z" fill="#1AD3BB"/>
</g>
</g>
<defs>
<filter id="filter0_d_947_1205" x="0.629883" y="0" width="90" height="90" filterUnits="userSpaceOnUse" color-interpolation-filters="sRGB">
<feFlood flood-opacity="0" result="BackgroundImageFix"/>
<feColorMatrix in="SourceAlpha" type="matrix" values="0 0 0 0 0 0 0 0 0 0 0 0 0 0 0 0 0 0 127 0" result="hardAlpha"/>
<feOffset dy="2"/>
<feGaussianBlur stdDeviation="2"/>
<feComposite in2="hardAlpha" operator="out"/>
<feColorMatrix type="matrix" values="0 0 0 0 0 0 0 0 0 0 0 0 0 0 0 0 0 0 0.075 0"/>
<feBlend mode="normal" in2="BackgroundImageFix" result="effect1_dropShadow_947_1205"/>
<feBlend mode="normal" in="SourceGraphic" in2="effect1_dropShadow_947_1205" result="shape"/>
</filter>
<clipPath id="clip0_947_1205">
<rect width="58.6299" height="58.6299" fill="white" transform="translate(17 14)"/>
</clipPath>
</defs>
</svg>
