<svg width="91" height="90" viewBox="0 0 91 90" fill="none" xmlns="http://www.w3.org/2000/svg">
<g filter="url(#filter0_d_947_872)">
<g clip-path="url(#clip0_947_872)">
<rect x="4.87988" y="2" width="82" height="82" rx="4" fill="white"/>
<g clip-path="url(#clip1_947_872)">
<g clip-path="url(#clip2_947_872)">
<path d="M80.1117 16.7598C85.8845 16.827 89.1382 24.0971 85.053 28.1807L71.2376 41.9879L64.74 46.2798L45.88 16.7598H80.1117ZM22.8314 44.2954C22.2263 44.9003 21.7463 45.6185 21.4189 46.4089C21.0914 47.1993 20.9229 48.0465 20.9229 48.9021C20.9229 49.7577 21.0914 50.6049 21.4189 51.3954C21.7463 52.1858 22.2263 52.904 22.8314 53.5089L36.6615 67.3341C37.8846 68.5566 39.5431 69.2433 41.2724 69.2433C43.0017 69.2433 44.6602 68.5566 45.8832 67.3341L43.42 61.0398L29.48 46.2798L22.8298 44.2921L22.8314 44.2954Z" fill="#2159A6"/>
<path d="M6.70654 28.1807C2.6213 24.0971 5.8767 16.827 11.6495 16.7598H45.8796L71.2356 41.9879C71.8412 42.5929 72.3216 43.3112 72.6493 44.102C72.9771 44.8927 73.1458 45.7403 73.1458 46.5963C73.1458 47.4523 72.9771 48.2998 72.6493 49.0906C72.3216 49.8813 71.8412 50.5997 71.2356 51.2047L55.098 67.3308C53.8751 68.5523 52.2173 69.2384 50.4888 69.2384C48.7603 69.2384 47.1025 68.5523 45.8796 67.3308L6.70654 28.1807Z" fill="#2589AD"/>
<path d="M45.8797 67.3324C46.4852 66.7275 46.9656 66.0091 47.2934 65.2183C47.6211 64.4276 47.7898 63.58 47.7898 62.724C47.7898 61.8681 47.6211 61.0205 47.2934 60.2297C46.9656 59.439 46.4852 58.7206 45.8797 58.1156L32.0479 44.2937C30.8248 43.0712 29.1663 42.3845 27.437 42.3845C25.7077 42.3845 24.0492 43.0712 22.8262 44.2937L45.8797 67.3324ZM33.7765 28.7416L45.8797 16.7598L60.8627 31.6214C59.0281 29.7887 56.5409 28.7591 53.9476 28.7591C51.3544 28.7591 48.8672 29.7887 47.0326 31.6214L41.8453 36.8038C40.775 37.8734 39.3239 38.4742 37.8109 38.4742C36.2978 38.4742 34.8467 37.8734 33.7765 36.8038C33.2469 36.2746 32.8267 35.6462 32.5401 34.9545C32.2535 34.2628 32.1059 33.5214 32.1059 32.7727C32.1059 32.024 32.2535 31.2826 32.5401 30.591C32.8267 29.8993 33.2469 29.2709 33.7765 28.7416Z" fill="#2159A6"/>
</g>
</g>
</g>
</g>
<defs>
<filter id="filter0_d_947_872" x="0.879883" y="0" width="90" height="90" filterUnits="userSpaceOnUse" color-interpolation-filters="sRGB">
<feFlood flood-opacity="0" result="BackgroundImageFix"/>
<feColorMatrix in="SourceAlpha" type="matrix" values="0 0 0 0 0 0 0 0 0 0 0 0 0 0 0 0 0 0 127 0" result="hardAlpha"/>
<feOffset dy="2"/>
<feGaussianBlur stdDeviation="2"/>
<feComposite in2="hardAlpha" operator="out"/>
<feColorMatrix type="matrix" values="0 0 0 0 0 0 0 0 0 0 0 0 0 0 0 0 0 0 0.075 0"/>
<feBlend mode="normal" in2="BackgroundImageFix" result="effect1_dropShadow_947_872"/>
<feBlend mode="normal" in="SourceGraphic" in2="effect1_dropShadow_947_872" result="shape"/>
</filter>
<clipPath id="clip0_947_872">
<rect x="4.87988" y="2" width="82" height="82" rx="4" fill="white"/>
</clipPath>
<clipPath id="clip1_947_872">
<rect width="82" height="82" fill="white" transform="translate(4.87988 2)"/>
</clipPath>
<clipPath id="clip2_947_872">
<rect width="82" height="82" fill="white" transform="translate(4.87988 2)"/>
</clipPath>
</defs>
</svg>
