<svg width="91" height="90" viewBox="0 0 91 90" fill="none" xmlns="http://www.w3.org/2000/svg">
<g filter="url(#filter0_d_947_1262)">
<rect x="4.55469" y="2" width="82" height="82" rx="4" fill="white"/>
<g clip-path="url(#clip0_947_1262)">
<path d="M26.6748 58H30.4248V61.75H22.9248V24.25H19.1748V65.5H30.4248V69.25H15.4248V20.5H22.9248V16.75H34.1748C35.8936 16.75 37.5439 17.0137 39.126 17.541C40.708 18.0684 42.1826 18.8594 43.5498 19.9141C44.8975 18.8594 46.3623 18.0684 47.9443 17.541C49.5264 17.0137 51.1865 16.75 52.9248 16.75H64.1748V20.5H71.6748V44.4941L67.9248 42.7949V24.25H64.1748V41.0957L60.4248 39.3672V20.5H52.9248C51.5381 20.5 50.21 20.7344 48.9404 21.2031C47.6709 21.6719 46.499 22.3652 45.4248 23.2832V41.0957L41.6748 42.7949V23.2832C40.6201 22.3848 39.458 21.7012 38.1885 21.2324C36.9189 20.7637 35.5811 20.5195 34.1748 20.5H26.6748V58ZM67.9248 65.4707L54.7998 72.0625L41.6748 65.4707C41.6748 64.7676 41.6846 64.0254 41.7041 63.2441C41.7236 62.4629 41.8018 61.6719 41.9385 60.8711C42.0752 60.0703 42.2705 59.3184 42.5244 58.6152C42.7783 57.9121 43.1299 57.2578 43.5791 56.6523L37.9248 54.0742V71.125H34.1748V52.375L54.7998 43L75.4248 52.375L66.0205 56.6523L66.2549 56.9746C66.665 57.5801 66.9775 58.2344 67.1924 58.9375C67.4072 59.6406 67.5732 60.3535 67.6904 61.0762C67.8076 61.7988 67.876 62.541 67.8955 63.3027C67.915 64.0645 67.9248 64.7871 67.9248 65.4707ZM54.7998 47.1016L43.2275 52.375L54.7998 57.6484L66.3721 52.375L54.7998 47.1016ZM54.7998 67.873L64.1748 63.1562C64.1553 62.6484 64.1162 62.1895 64.0576 61.7793C63.999 61.3691 63.8916 60.9688 63.7354 60.5781C63.5791 60.1875 63.4229 59.8066 63.2666 59.4355C63.1104 59.0645 62.8857 58.6543 62.5928 58.2051L54.7998 61.75L47.0068 58.2051C46.7139 58.6738 46.4795 59.0938 46.3037 59.4648C46.1279 59.8359 45.9717 60.207 45.835 60.5781C45.6982 60.9492 45.6104 61.3398 45.5713 61.75C45.5322 62.1602 45.4932 62.6387 45.4541 63.1855L54.7998 67.873Z" fill="#2159A6"/>
</g>
</g>
<defs>
<filter id="filter0_d_947_1262" x="0.554688" y="0" width="90" height="90" filterUnits="userSpaceOnUse" color-interpolation-filters="sRGB">
<feFlood flood-opacity="0" result="BackgroundImageFix"/>
<feColorMatrix in="SourceAlpha" type="matrix" values="0 0 0 0 0 0 0 0 0 0 0 0 0 0 0 0 0 0 127 0" result="hardAlpha"/>
<feOffset dy="2"/>
<feGaussianBlur stdDeviation="2"/>
<feComposite in2="hardAlpha" operator="out"/>
<feColorMatrix type="matrix" values="0 0 0 0 0 0 0 0 0 0 0 0 0 0 0 0 0 0 0.075 0"/>
<feBlend mode="normal" in2="BackgroundImageFix" result="effect1_dropShadow_947_1262"/>
<feBlend mode="normal" in="SourceGraphic" in2="effect1_dropShadow_947_1262" result="shape"/>
</filter>
<clipPath id="clip0_947_1262">
<rect width="60" height="60" fill="white" transform="translate(15.4248 13)"/>
</clipPath>
</defs>
</svg>
