<svg width="91" height="90" viewBox="0 0 91 90" fill="none" xmlns="http://www.w3.org/2000/svg">
<g filter="url(#filter0_d_947_1244)">
<g clip-path="url(#clip0_947_1244)">
<rect x="4.58008" y="2" width="82" height="82" rx="4" fill="white"/>
<path d="M47.1244 49.2002C48.4571 49.2002 49.7353 49.7296 50.6776 50.672C51.62 51.6144 52.1494 52.8925 52.1494 54.2252V55.9002C52.1494 62.503 45.9184 69.3002 35.3994 69.3002C24.8804 69.3002 18.6494 62.503 18.6494 55.9002V54.2252C18.6494 52.8925 19.1788 51.6144 20.1212 50.672C21.0636 49.7296 22.3417 49.2002 23.6744 49.2002H47.1244ZM47.1244 52.5502H23.6744C23.2302 52.5502 22.8041 52.7267 22.49 53.0408C22.1759 53.3549 21.9994 53.781 21.9994 54.2252V55.9002C21.9994 60.7175 26.7966 65.9502 35.3994 65.9502C44.0022 65.9502 48.7994 60.7175 48.7994 55.9002V54.2252C48.7994 53.781 48.6229 53.3549 48.3088 53.0408C47.9947 52.7267 47.5687 52.5502 47.1244 52.5502ZM35.3994 27.4252C37.8427 27.4252 40.186 28.3958 41.9136 30.1235C43.6413 31.8512 44.6119 34.1944 44.6119 36.6377C44.6119 39.081 43.6413 41.4242 41.9136 43.1519C40.186 44.8796 37.8427 45.8502 35.3994 45.8502C32.9561 45.8502 30.6129 44.8796 28.8852 43.1519C27.1575 41.4242 26.1869 39.081 26.1869 36.6377C26.1869 34.1944 27.1575 31.8512 28.8852 30.1235C30.6129 28.3958 32.9561 27.4252 35.3994 27.4252ZM65.5494 15.7002C67.2392 15.7005 68.8664 16.3393 70.1051 17.4885C71.3439 18.6378 72.1026 20.2127 72.2293 21.8977L72.2494 22.4002V29.1002C72.2499 30.7905 71.6115 32.4186 70.4622 33.658C69.3128 34.8975 67.7375 35.6567 66.0519 35.7834L65.5494 35.8002H60.5211L56.5078 41.1602C54.7323 43.5253 51.1344 42.5672 50.5548 39.9006L50.4979 39.5287L50.4744 39.1502V35.5824L50.2131 35.5154C49.009 35.1506 47.9317 34.4546 47.1041 33.5069C46.2766 32.5591 45.7323 31.3978 45.5332 30.1554L45.4662 29.5993L45.4494 29.1002V22.4002C45.4489 20.7099 46.0873 19.0818 47.2366 17.8424C48.386 16.6029 49.9613 15.8437 51.6469 15.7169L52.1494 15.7002H65.5494ZM35.3994 30.7752C34.6295 30.7752 33.8672 30.9268 33.1559 31.2215C32.4447 31.5161 31.7984 31.9479 31.254 32.4923C30.7096 33.0367 30.2778 33.6829 29.9832 34.3942C29.6886 35.1055 29.5369 35.8678 29.5369 36.6377C29.5369 37.4076 29.6886 38.1699 29.9832 38.8812C30.2778 39.5924 30.7096 40.2387 31.254 40.7831C31.7984 41.3275 32.4447 41.7593 33.1559 42.0539C33.8672 42.3486 34.6295 42.5002 35.3994 42.5002C36.9542 42.5002 38.4454 41.8825 39.5448 40.7831C40.6443 39.6837 41.2619 38.1925 41.2619 36.6377C41.2619 35.0829 40.6443 33.5917 39.5448 32.4923C38.4454 31.3928 36.9542 30.7752 35.3994 30.7752ZM65.5494 19.0502H52.1494C51.3289 19.0503 50.5369 19.3515 49.9238 19.8968C49.3106 20.442 48.9189 21.1934 48.8229 22.0082L48.7994 22.4002V29.1002C48.7995 29.9207 49.1008 30.7127 49.646 31.3258C50.1913 31.939 50.9426 32.3307 51.7575 32.4267L52.1494 32.4502H53.8244V39.1502L58.8494 32.4502H65.5494C66.3699 32.4501 67.1619 32.1488 67.7751 31.6036C68.3882 31.0584 68.78 30.307 68.876 29.4921L68.8994 29.1002V22.4002C68.8993 21.5797 68.5981 20.7877 68.0528 20.1745C67.5076 19.5614 66.7563 19.1696 65.9414 19.0736L65.5494 19.0502Z" fill="#2159A6"/>
</g>
</g>
<defs>
<filter id="filter0_d_947_1244" x="0.580078" y="0" width="90" height="90" filterUnits="userSpaceOnUse" color-interpolation-filters="sRGB">
<feFlood flood-opacity="0" result="BackgroundImageFix"/>
<feColorMatrix in="SourceAlpha" type="matrix" values="0 0 0 0 0 0 0 0 0 0 0 0 0 0 0 0 0 0 127 0" result="hardAlpha"/>
<feOffset dy="2"/>
<feGaussianBlur stdDeviation="2"/>
<feComposite in2="hardAlpha" operator="out"/>
<feColorMatrix type="matrix" values="0 0 0 0 0 0 0 0 0 0 0 0 0 0 0 0 0 0 0.075 0"/>
<feBlend mode="normal" in2="BackgroundImageFix" result="effect1_dropShadow_947_1244"/>
<feBlend mode="normal" in="SourceGraphic" in2="effect1_dropShadow_947_1244" result="shape"/>
</filter>
<clipPath id="clip0_947_1244">
<rect x="4.58008" y="2" width="82" height="82" rx="4" fill="white"/>
</clipPath>
</defs>
</svg>
