<svg width="91" height="90" viewBox="0 0 91 90" fill="none" xmlns="http://www.w3.org/2000/svg">
<g filter="url(#filter0_d_947_1231)">
<g clip-path="url(#clip0_947_1231)">
<rect x="4.09229" y="2" width="82" height="82" rx="4" fill="white"/>
<g clip-path="url(#clip1_947_1231)">
<path d="M60.5689 18.4365C64.0077 18.4365 66.6474 21.0576 68.603 23.8776L69.2653 24.8756L69.8716 25.8706C70.0643 26.1939 70.2478 26.5173 70.425 26.8282C72.8719 31.2028 75.0017 36.9143 76.4102 42.5575C77.8093 48.1571 78.5835 54.0054 78.0891 58.6039C77.5916 63.221 75.2131 68.1833 69.8964 68.1833C65.127 68.1833 61.368 65.6338 58.3148 63.1433L54.8636 60.2487C51.9938 57.8981 48.8536 55.7466 45.0231 55.7466C41.1926 55.7466 38.0492 57.8981 35.1857 60.2487L31.7345 63.1402C28.675 65.6338 24.9161 68.1833 20.1497 68.1833C14.8299 68.1833 12.4514 63.221 11.957 58.6039C11.4658 54.0023 12.2369 48.1571 13.636 42.5575C15.0444 36.9143 17.1742 31.2028 19.6211 26.8282L20.1746 25.8674L20.7809 24.8756L21.4431 23.8776C23.3988 21.0576 26.0385 18.4365 29.4772 18.4365C31.0629 18.4365 32.6392 18.8221 34.1876 19.276L36.0313 19.8419C36.336 19.9351 36.6376 20.0253 36.9392 20.1093C39.6287 20.8803 42.3803 21.5457 45.0231 21.5457C47.6659 21.5457 50.4175 20.8803 53.1069 20.1093L55.8585 19.2791C57.4069 18.8221 58.9832 18.4365 60.5689 18.4365ZM34.141 30.8732C32.0795 30.8732 30.1024 31.6921 28.6447 33.1498C27.187 34.6076 26.368 36.5846 26.368 38.6461C26.368 40.7076 27.187 42.6847 28.6447 44.1424C30.1024 45.6001 32.0795 46.4191 34.141 46.4191C36.2025 46.4191 38.1796 45.6001 39.6373 44.1424C41.095 42.6847 41.9139 40.7076 41.9139 38.6461C41.9139 36.5846 41.095 34.6076 39.6373 33.1498C38.1796 31.6921 36.2025 30.8732 34.141 30.8732ZM55.9052 30.8732C55.0806 30.8732 54.2897 31.2008 53.7067 31.7839C53.1236 32.3669 52.796 33.1578 52.796 33.9824V35.537H51.2414C50.4168 35.537 49.626 35.8645 49.0429 36.4476C48.4598 37.0307 48.1322 37.8215 48.1322 38.6461C48.1322 39.4707 48.4598 40.2616 49.0429 40.8447C49.626 41.4277 50.4168 41.7553 51.2414 41.7553H52.796V43.3099C52.796 44.1345 53.1236 44.9253 53.7067 45.5084C54.2897 46.0915 55.0806 46.4191 55.9052 46.4191C56.7298 46.4191 57.5206 46.0915 58.1037 45.5084C58.6868 44.9253 59.0143 44.1345 59.0143 43.3099V41.7553H60.5689C61.3935 41.7553 62.1844 41.4277 62.7674 40.8447C63.3505 40.2616 63.6781 39.4707 63.6781 38.6461C63.6781 37.8215 63.3505 37.0307 62.7674 36.4476C62.1844 35.8645 61.3935 35.537 60.5689 35.537H59.0143V33.9824C59.0143 33.1578 58.6868 32.3669 58.1037 31.7839C57.5206 31.2008 56.7298 30.8732 55.9052 30.8732ZM34.141 37.0916C34.5533 37.0916 34.9487 37.2553 35.2402 37.5469C35.5318 37.8384 35.6956 38.2338 35.6956 38.6461C35.6956 39.0584 35.5318 39.4539 35.2402 39.7454C34.9487 40.0369 34.5533 40.2007 34.141 40.2007C33.7287 40.2007 33.3333 40.0369 33.0417 39.7454C32.7502 39.4539 32.5864 39.0584 32.5864 38.6461C32.5864 38.2338 32.7502 37.8384 33.0417 37.5469C33.3333 37.2553 33.7287 37.0916 34.141 37.0916Z" fill="#2589AD"/>
</g>
</g>
</g>
<defs>
<filter id="filter0_d_947_1231" x="0.0922852" y="0" width="89.9995" height="90" filterUnits="userSpaceOnUse" color-interpolation-filters="sRGB">
<feFlood flood-opacity="0" result="BackgroundImageFix"/>
<feColorMatrix in="SourceAlpha" type="matrix" values="0 0 0 0 0 0 0 0 0 0 0 0 0 0 0 0 0 0 127 0" result="hardAlpha"/>
<feOffset dy="2"/>
<feGaussianBlur stdDeviation="2"/>
<feComposite in2="hardAlpha" operator="out"/>
<feColorMatrix type="matrix" values="0 0 0 0 0 0 0 0 0 0 0 0 0 0 0 0 0 0 0.075 0"/>
<feBlend mode="normal" in2="BackgroundImageFix" result="effect1_dropShadow_947_1231"/>
<feBlend mode="normal" in="SourceGraphic" in2="effect1_dropShadow_947_1231" result="shape"/>
</filter>
<clipPath id="clip0_947_1231">
<rect x="4.09229" y="2" width="82" height="82" rx="4" fill="white"/>
</clipPath>
<clipPath id="clip1_947_1231">
<rect width="74.6201" height="74.6201" fill="white" transform="translate(7.7124 6)"/>
</clipPath>
</defs>
</svg>
