<svg width="91" height="90" viewBox="0 0 91 90" fill="none" xmlns="http://www.w3.org/2000/svg">
<g filter="url(#filter0_d_947_888)">
<g clip-path="url(#clip0_947_888)">
<rect x="4.37988" y="2" width="82" height="82" rx="4" fill="white"/>
<g clip-path="url(#clip1_947_888)">
<g clip-path="url(#clip2_947_888)">
<path d="M60.1401 29.8801C60.1401 33.7947 58.585 37.549 55.817 40.317C53.049 43.085 49.2947 44.6401 45.3801 44.6401C41.4655 44.6401 37.7113 43.085 34.9432 40.317C32.1752 37.549 30.6201 33.7947 30.6201 29.8801C30.6201 25.9655 32.1752 22.2113 34.9432 19.4432C37.7113 16.6752 41.4655 15.1201 45.3801 15.1201C49.2947 15.1201 53.049 16.6752 55.817 19.4432C58.585 22.2113 60.1401 25.9655 60.1401 29.8801Z" fill="#2589AD"/>
<path d="M24.0595 41.3598C24.0595 43.0996 23.3683 44.7682 22.1381 45.9984C20.9078 47.2287 19.2393 47.9198 17.4995 47.9198C15.7596 47.9198 14.0911 47.2287 12.8608 45.9984C11.6306 44.7682 10.9395 43.0996 10.9395 41.3598C10.9395 39.62 11.6306 37.9514 12.8608 36.7212C14.0911 35.4909 15.7596 34.7998 17.4995 34.7998C19.2393 34.7998 20.9078 35.4909 22.1381 36.7212C23.3683 37.9514 24.0595 39.62 24.0595 41.3598Z" fill="#AAD4F7"/>
<path d="M79.8202 41.3598C79.8202 43.0996 79.1291 44.7682 77.8988 45.9984C76.6686 47.2287 75 47.9198 73.2602 47.9198C71.5204 47.9198 69.8518 47.2287 68.6216 45.9984C67.3913 44.7682 66.7002 43.0996 66.7002 41.3598C66.7002 39.62 67.3913 37.9514 68.6216 36.7212C69.8518 35.4909 71.5204 34.7998 73.2602 34.7998C75 34.7998 76.6686 35.4909 77.8988 36.7212C79.1291 37.9514 79.8202 39.62 79.8202 41.3598Z" fill="#2159A6"/>
<path d="M45.3799 51.2002H10.9399C9.20006 51.2002 7.5315 51.8913 6.30126 53.1216C5.07102 54.3518 4.37988 56.0204 4.37988 57.7602L4.37988 64.3202C4.37988 66.06 5.07102 67.7286 6.30126 68.9588C7.5315 70.1891 9.20006 70.8802 10.9399 70.8802H45.3799V51.2002Z" fill="#AAD4F7"/>
<path d="M79.8199 51.2002H45.3799V70.8802H79.8199C81.5597 70.8802 83.2283 70.1891 84.4585 68.9588C85.6887 67.7286 86.3799 66.06 86.3799 64.3202V57.7602C86.3799 56.0204 85.6887 54.3518 84.4585 53.1216C83.2283 51.8913 81.5597 51.2002 79.8199 51.2002Z" fill="#2159A6"/>
<path d="M24.0596 51.2002H47.0196C57.8878 51.2002 66.6996 60.0119 66.6996 70.8802H43.7396C32.8713 70.8802 24.0596 62.0685 24.0596 51.2002Z" fill="#2589AD"/>
</g>
</g>
</g>
</g>
<defs>
<filter id="filter0_d_947_888" x="0.379883" y="0" width="90" height="90" filterUnits="userSpaceOnUse" color-interpolation-filters="sRGB">
<feFlood flood-opacity="0" result="BackgroundImageFix"/>
<feColorMatrix in="SourceAlpha" type="matrix" values="0 0 0 0 0 0 0 0 0 0 0 0 0 0 0 0 0 0 127 0" result="hardAlpha"/>
<feOffset dy="2"/>
<feGaussianBlur stdDeviation="2"/>
<feComposite in2="hardAlpha" operator="out"/>
<feColorMatrix type="matrix" values="0 0 0 0 0 0 0 0 0 0 0 0 0 0 0 0 0 0 0.075 0"/>
<feBlend mode="normal" in2="BackgroundImageFix" result="effect1_dropShadow_947_888"/>
<feBlend mode="normal" in="SourceGraphic" in2="effect1_dropShadow_947_888" result="shape"/>
</filter>
<clipPath id="clip0_947_888">
<rect x="4.37988" y="2" width="82" height="82" rx="4" fill="white"/>
</clipPath>
<clipPath id="clip1_947_888">
<rect width="82" height="82" fill="white" transform="translate(4.37988 2)"/>
</clipPath>
<clipPath id="clip2_947_888">
<rect width="82" height="82" fill="white" transform="translate(4.37988 2)"/>
</clipPath>
</defs>
</svg>
