<svg width="91" height="90" viewBox="0 0 91 90" fill="none" xmlns="http://www.w3.org/2000/svg">
<g filter="url(#filter0_d_947_1254)">
<g clip-path="url(#clip0_947_1254)">
<rect x="4.06738" y="2" width="82" height="82" rx="4" fill="white"/>
<g clip-path="url(#clip1_947_1254)">
<g clip-path="url(#clip2_947_1254)">
<path d="M39.6143 50.1094C39.5882 50.1875 39.4255 50.181 39.126 50.0898C38.8265 49.9987 38.4163 49.849 37.8955 49.6406L37.1143 49.2891C35.9684 48.7682 34.8356 48.1302 33.7158 47.375C33.5335 47.2448 32.9997 46.8346 32.1143 46.1445C31.2288 45.4544 30.734 45.0833 30.6299 45.0312C28.8851 47.7135 27.1403 50.0703 25.3955 52.1016C23.2861 54.5755 21.9189 56.0078 21.2939 56.3984C21.1898 56.4505 20.9359 56.5026 20.5322 56.5547C20.1286 56.6068 19.8877 56.6068 19.8096 56.5547C19.9658 56.4505 21.0335 55.2526 23.0127 52.9609C23.5596 52.3359 24.6729 50.8385 26.3525 48.4688C28.0322 46.099 29.0544 44.5625 29.4189 43.8594C29.8617 43.0781 30.5257 41.7956 31.4111 40.0117C32.2965 38.2279 32.7653 37.2188 32.8174 36.9844C32.609 36.9583 31.1768 37.388 28.5205 38.2734C28.3122 38.3255 27.9541 38.4232 27.4463 38.5664C26.9385 38.7096 26.4893 38.8333 26.0986 38.9375C25.708 39.0417 25.4867 39.1068 25.4346 39.1328C25.3825 39.1849 25.3564 39.3216 25.3564 39.543C25.3564 39.7643 25.3434 39.888 25.3174 39.9141C25.1872 40.1745 24.7835 40.3698 24.1064 40.5C23.5075 40.6823 22.8955 40.6823 22.2705 40.5C21.8018 40.3958 21.4372 40.1224 21.1768 39.6797C21.0726 39.5234 21.0075 39.224 20.9814 38.7812C21.1377 38.7292 21.4567 38.6641 21.9385 38.5859C22.4202 38.5078 22.8044 38.4297 23.0908 38.3516C24.6012 37.9349 25.9684 37.5182 27.1924 37.1016C29.7965 36.1901 31.1247 35.7344 31.1768 35.7344C31.4372 35.6823 31.9971 35.4284 32.8564 34.9727C33.7158 34.5169 34.2887 34.237 34.5752 34.1328C34.8096 34.0547 35.0895 33.9505 35.415 33.8203C35.7406 33.6901 35.9294 33.6185 35.9814 33.6055C36.0335 33.5924 36.1117 33.599 36.2158 33.625C36.2679 33.9375 36.2549 34.3672 36.1768 34.9141C36.1768 34.9661 36.014 35.3177 35.6885 35.9688C35.363 36.6198 35.0179 37.3164 34.6533 38.0586C34.2887 38.8008 34.0674 39.237 33.9893 39.3672C33.3382 40.6693 32.3356 42.375 30.9814 44.4844L33.4814 45.5781C33.7939 45.7344 34.764 46.151 36.3916 46.8281C38.0192 47.5052 38.8981 47.8698 39.0283 47.9219C39.1325 47.9479 39.2692 48.2799 39.4385 48.918C39.6077 49.556 39.6663 49.9531 39.6143 50.1094ZM31.6064 31.125C31.6846 31.5156 31.6325 31.8802 31.4502 32.2188C31.1377 32.8177 30.4867 33.3125 29.4971 33.7031C28.7158 34.0156 27.9346 34.1719 27.1533 34.1719C26.4762 34.0938 25.8382 33.7552 25.2393 33.1562C24.8747 32.7656 24.6403 32.2318 24.5361 31.5547L24.5752 31.4375C24.6533 31.5156 24.9072 31.5807 25.3369 31.6328C25.7666 31.6849 26.1117 31.6849 26.3721 31.6328C26.6325 31.5807 27.3877 31.3724 28.6377 31.0078C29.5752 30.6953 30.2913 30.513 30.7861 30.4609C31.2288 30.4609 31.5023 30.6823 31.6064 31.125ZM58.8721 36.1641L61.333 45.0312L55.9033 43.3906L58.8721 36.1641ZM15.5908 67.4141L42.7002 58.3516V18.0391L15.5908 27.1406V67.4141ZM64.0674 55.0312L68.0518 56.2422L60.9814 30.5781L57.0752 29.3672L48.6377 50.3047L52.6221 51.5156L54.3799 47.2188L62.6221 49.7578L64.0674 55.0312ZM44.4189 17.4531L66.8018 24.6406V9.79688L44.4189 17.4531ZM56.5674 69.1328L62.7393 69.6406L60.6299 75.8906L59.0674 73.3125C55.682 75.474 52.0882 76.8802 48.2861 77.5312C46.7757 77.8438 45.5908 78 44.7314 78H41.4502C39.3929 78 36.7952 77.4922 33.6572 76.4766C30.5192 75.4609 28.1299 74.3542 26.4893 73.1562C26.2809 72.974 26.1768 72.7656 26.1768 72.5312C26.1768 72.3229 26.2419 72.1471 26.3721 72.0039C26.5023 71.8607 26.6715 71.7891 26.8799 71.7891C26.984 71.7891 27.2184 71.8867 27.583 72.082C27.9476 72.2773 28.3447 72.4922 28.7744 72.7266C29.2041 72.9609 29.471 73.1042 29.5752 73.1562C31.4762 74.1198 33.5531 74.9206 35.8057 75.5586C38.0583 76.1966 40.109 76.5156 41.958 76.5156C44.432 76.5156 46.6064 76.3268 48.4814 75.9492C50.3564 75.5716 52.4007 74.9141 54.6143 73.9766C55.0049 73.7943 55.402 73.5924 55.8057 73.3711C56.2093 73.1497 56.652 72.9023 57.1338 72.6289C57.6156 72.3555 57.9867 72.1406 58.2471 71.9844L56.5674 69.1328ZM74.0674 26.9844V69.1328L43.833 59.5234C43.4684 59.6797 38.5856 61.3398 29.1846 64.5039C19.7835 67.668 14.9919 69.25 14.8096 69.25C14.471 69.25 14.2367 69.0807 14.1064 68.7422C14.1064 68.7161 14.0934 68.6771 14.0674 68.625V26.5156C14.1455 26.2812 14.1976 26.151 14.2236 26.125C14.3538 25.9688 14.6143 25.8255 15.0049 25.6953C17.7913 24.7578 19.7314 24.1068 20.8252 23.7422V8.74219L42.6221 16.4766C42.6742 16.4766 44.764 15.7604 48.8916 14.3281C53.0192 12.8958 57.1338 11.4831 61.2354 10.0898C65.3369 8.69661 67.4398 8 67.5439 8C68.0648 8 68.3252 8.27344 68.3252 8.82031V25.1484L74.0674 26.9844Z" fill="#2589AD"/>
</g>
</g>
</g>
</g>
<defs>
<filter id="filter0_d_947_1254" x="0.0673828" y="0" width="90" height="90" filterUnits="userSpaceOnUse" color-interpolation-filters="sRGB">
<feFlood flood-opacity="0" result="BackgroundImageFix"/>
<feColorMatrix in="SourceAlpha" type="matrix" values="0 0 0 0 0 0 0 0 0 0 0 0 0 0 0 0 0 0 127 0" result="hardAlpha"/>
<feOffset dy="2"/>
<feGaussianBlur stdDeviation="2"/>
<feComposite in2="hardAlpha" operator="out"/>
<feColorMatrix type="matrix" values="0 0 0 0 0 0 0 0 0 0 0 0 0 0 0 0 0 0 0.075 0"/>
<feBlend mode="normal" in2="BackgroundImageFix" result="effect1_dropShadow_947_1254"/>
<feBlend mode="normal" in="SourceGraphic" in2="effect1_dropShadow_947_1254" result="shape"/>
</filter>
<clipPath id="clip0_947_1254">
<rect x="4.06738" y="2" width="82" height="82" rx="4" fill="white"/>
</clipPath>
<clipPath id="clip1_947_1254">
<rect width="82" height="82" fill="white" transform="translate(4.06738 2)"/>
</clipPath>
<clipPath id="clip2_947_1254">
<rect width="60" height="70" fill="white" transform="translate(14.0674 8)"/>
</clipPath>
</defs>
</svg>
