<svg width="91" height="90" viewBox="0 0 91 90" fill="none" xmlns="http://www.w3.org/2000/svg">
<g filter="url(#filter0_d_947_833)">
<g clip-path="url(#clip0_947_833)">
<rect x="4.87988" y="2" width="82" height="82" rx="4" fill="white"/>
<g clip-path="url(#clip1_947_833)">
<g clip-path="url(#clip2_947_833)">
<path fill-rule="evenodd" clip-rule="evenodd" d="M40.7912 29.8798H13.0801V23.3198C13.0801 21.5799 13.7712 19.9114 15.0015 18.6811C16.2317 17.4509 17.9003 16.7598 19.6401 16.7598H45.6128L57.6618 29.8798H80.3201C82.0599 29.8798 83.7285 30.5709 84.9587 31.8011C86.1889 33.0314 86.8801 34.6999 86.8801 36.4398V42.9998H52.8402L40.7912 29.8798Z" fill="#2589AD"/>
<path fill-rule="evenodd" clip-rule="evenodd" d="M32.386 56.12H4.87988V49.56C4.87988 47.8202 5.57102 46.1516 6.80126 44.9214C8.0315 43.6911 9.70006 43 11.4399 43H37.6176L49.6666 57.76H72.1199C73.8597 57.76 75.5283 58.4511 76.7585 59.6814C77.9887 60.9116 78.6799 62.5802 78.6799 64.32V70.88H44.4367L32.386 56.12Z" fill="#1AD3BB"/>
<path fill-rule="evenodd" clip-rule="evenodd" d="M56.0889 42.9999H86.8799V36.4399C86.8799 34.7001 86.1887 33.0315 84.9585 31.8013C83.7283 30.571 82.0597 29.8799 80.3199 29.8799H50.7326L37.3437 42.9999H11.4399C9.70006 42.9999 8.0315 43.691 6.80126 44.9213C5.57102 46.1515 4.87988 47.8201 4.87988 49.5599L4.87988 56.1199H42.7016L56.0889 42.9999Z" fill="#2159A6"/>
<path d="M45.8274 53.0565L37.6176 43H11.4399C9.70073 43.0022 8.03343 43.694 6.80366 44.9238C5.57389 46.1535 4.88205 47.8208 4.87988 49.56L4.87988 56.12H42.7016L45.8274 53.0565Z" fill="#005E7A"/>
</g>
</g>
</g>
</g>
<defs>
<filter id="filter0_d_947_833" x="0.879883" y="0" width="90" height="90" filterUnits="userSpaceOnUse" color-interpolation-filters="sRGB">
<feFlood flood-opacity="0" result="BackgroundImageFix"/>
<feColorMatrix in="SourceAlpha" type="matrix" values="0 0 0 0 0 0 0 0 0 0 0 0 0 0 0 0 0 0 127 0" result="hardAlpha"/>
<feOffset dy="2"/>
<feGaussianBlur stdDeviation="2"/>
<feComposite in2="hardAlpha" operator="out"/>
<feColorMatrix type="matrix" values="0 0 0 0 0 0 0 0 0 0 0 0 0 0 0 0 0 0 0.075 0"/>
<feBlend mode="normal" in2="BackgroundImageFix" result="effect1_dropShadow_947_833"/>
<feBlend mode="normal" in="SourceGraphic" in2="effect1_dropShadow_947_833" result="shape"/>
</filter>
<clipPath id="clip0_947_833">
<rect x="4.87988" y="2" width="82" height="82" rx="4" fill="white"/>
</clipPath>
<clipPath id="clip1_947_833">
<rect width="82" height="82" fill="white" transform="translate(4.87988 2)"/>
</clipPath>
<clipPath id="clip2_947_833">
<rect width="82" height="82" fill="white" transform="translate(4.87988 2)"/>
</clipPath>
</defs>
</svg>
