<svg width="91" height="90" viewBox="0 0 91 90" fill="none" xmlns="http://www.w3.org/2000/svg">
<g filter="url(#filter0_d_947_1281)">
<rect x="4.53027" y="2" width="82" height="82" rx="4" fill="white"/>
<path d="M60.0479 28.4062L64.6941 33.0525L51.9891 45.7575C51.7426 45.9952 51.4129 46.1271 51.0704 46.125H48.2879C47.5529 46.125 46.9754 45.5475 46.9754 44.8125V42.03C46.9754 41.6887 47.1066 41.3475 47.3691 41.1112L60.0479 28.4062ZM68.6316 27.2513L65.8491 24.4688C65.3241 23.9437 64.5104 23.9437 63.9854 24.4688L61.7541 26.7L66.4004 31.3462L68.6316 29.115C69.1566 28.59 69.1566 27.75 68.6316 27.2513ZM66.4004 59.25C66.4004 60.6937 65.2191 61.875 63.7754 61.875H27.0254C25.5816 61.875 24.4004 60.6937 24.4004 59.25C24.4004 57.8063 25.5816 56.625 27.0254 56.625H29.6504V38.25C29.6504 30.9263 34.6641 24.7575 41.4629 23.025V21.1875C41.4629 19.0088 43.2216 17.25 45.4004 17.25C47.5791 17.25 49.3379 19.0088 49.3379 21.1875V23.025C51.4904 23.5762 53.4591 24.5738 55.1391 25.8862L43.2741 37.7513C42.2766 38.7488 41.7254 40.0613 41.7254 41.4525V46.125C41.7254 49.0125 44.0879 51.375 46.9754 51.375H51.6216C53.0129 51.375 54.3516 50.8237 55.3229 49.8262L61.1504 44.025V56.625H63.7754C65.2191 56.625 66.4004 57.8063 66.4004 59.25ZM40.1504 64.5H50.6504C50.6504 67.3875 48.2879 69.75 45.4004 69.75C42.5129 69.75 40.1504 67.3875 40.1504 64.5Z" fill="#2159A6"/>
</g>
<defs>
<filter id="filter0_d_947_1281" x="0.530273" y="0" width="90" height="90" filterUnits="userSpaceOnUse" color-interpolation-filters="sRGB">
<feFlood flood-opacity="0" result="BackgroundImageFix"/>
<feColorMatrix in="SourceAlpha" type="matrix" values="0 0 0 0 0 0 0 0 0 0 0 0 0 0 0 0 0 0 127 0" result="hardAlpha"/>
<feOffset dy="2"/>
<feGaussianBlur stdDeviation="2"/>
<feComposite in2="hardAlpha" operator="out"/>
<feColorMatrix type="matrix" values="0 0 0 0 0 0 0 0 0 0 0 0 0 0 0 0 0 0 0.075 0"/>
<feBlend mode="normal" in2="BackgroundImageFix" result="effect1_dropShadow_947_1281"/>
<feBlend mode="normal" in="SourceGraphic" in2="effect1_dropShadow_947_1281" result="shape"/>
</filter>
</defs>
</svg>
