<svg width="91" height="90" viewBox="0 0 91 90" fill="none" xmlns="http://www.w3.org/2000/svg">
<g filter="url(#filter0_d_947_907)">
<g clip-path="url(#clip0_947_907)">
<rect x="4.87988" y="2" width="82" height="82" rx="4" fill="white"/>
<g clip-path="url(#clip1_947_907)">
<g clip-path="url(#clip2_947_907)">
<path d="M20.4597 15.1201L14.7197 61.0401H24.5909C24.7961 63.7185 26.005 66.2206 27.9756 68.0461C29.9463 69.8715 32.5335 70.8856 35.2197 70.8856C37.9059 70.8856 40.4931 69.8715 42.4638 68.0461C44.4345 66.2206 45.6433 63.7185 45.8486 61.0401H45.8797C45.8797 63.6498 46.9164 66.1527 48.7618 67.998C50.6072 69.8434 53.11 70.8801 55.7197 70.8801C58.3295 70.8801 60.8323 69.8434 62.6777 67.998C64.523 66.1527 65.5597 63.6498 65.5597 61.0401H65.5909C65.7961 63.7185 67.005 66.2206 68.9757 68.0461C70.9463 69.8715 73.5335 70.8856 76.2197 70.8856C78.906 70.8856 81.4931 69.8715 83.4638 68.0461C85.4345 66.2206 86.6433 63.7185 86.8486 61.0401H86.8797V59.4001L86.8059 58.9524C86.7808 58.7404 86.7491 58.5293 86.7108 58.3194L86.6731 58.1258L86.6403 57.9618L80.4132 20.6026C80.1582 19.0709 79.368 17.6793 78.1833 16.6754C76.9986 15.6715 75.4962 15.1204 73.9434 15.1201H20.4597Z" fill="#2589AD"/>
<path d="M27.8399 15.1201L24.5599 61.0401C24.5599 63.6498 23.5232 66.1527 21.6778 67.998C19.8325 69.8434 17.3296 70.8801 14.7199 70.8801C12.1102 70.8801 9.60731 69.8434 7.76195 67.998C5.91659 66.1527 4.87988 63.6498 4.87988 61.0401L4.87988 59.4001L10.61 20.7191C10.8405 19.1627 11.6227 17.741 12.814 16.7132C14.0052 15.6855 15.5262 15.1201 17.0995 15.1201H27.8399ZM62.2799 15.1201L65.5599 61.0401C65.5599 63.6498 64.5232 66.1527 62.6778 67.998C60.8325 69.8434 58.3296 70.8801 55.7199 70.8801C53.1102 70.8801 50.6073 69.8434 48.762 67.998C46.9166 66.1527 45.8799 63.6498 45.8799 61.0401V15.1201H62.2799Z" fill="#2159A6"/>
<path d="M24.5599 61.04C24.5599 63.6498 23.5232 66.1526 21.6778 67.998C19.8325 69.8433 17.3296 70.88 14.7199 70.88C12.1102 70.88 9.60731 69.8433 7.76195 67.998C5.91659 66.1526 4.87988 63.6498 4.87988 61.04H24.5599ZM65.5599 61.04C65.5599 63.6498 64.5232 66.1526 62.6778 67.998C60.8325 69.8433 58.3296 70.88 55.7199 70.88C53.1102 70.88 50.6073 69.8433 48.762 67.998C46.9166 66.1526 45.8799 63.6498 45.8799 61.04H65.5599Z" fill="#2159A6"/>
<path d="M24.5928 61.04C24.8005 63.7164 26.0104 66.2158 27.9806 68.039C29.9509 69.8622 32.5364 70.8749 35.2208 70.8749C37.9052 70.8749 40.4907 69.8622 42.461 68.039C44.4312 66.2158 45.641 63.7164 45.8488 61.04H24.5928ZM65.5928 61.04C65.8005 63.7164 67.0104 66.2158 68.9806 68.039C70.9509 69.8622 73.5364 70.8749 76.2208 70.8749C78.9052 70.8749 81.4907 69.8622 83.461 68.039C85.4312 66.2158 86.641 63.7164 86.8488 61.04H65.5928Z" fill="#2589AD"/>
</g>
</g>
</g>
</g>
<defs>
<filter id="filter0_d_947_907" x="0.879883" y="0" width="90" height="90" filterUnits="userSpaceOnUse" color-interpolation-filters="sRGB">
<feFlood flood-opacity="0" result="BackgroundImageFix"/>
<feColorMatrix in="SourceAlpha" type="matrix" values="0 0 0 0 0 0 0 0 0 0 0 0 0 0 0 0 0 0 127 0" result="hardAlpha"/>
<feOffset dy="2"/>
<feGaussianBlur stdDeviation="2"/>
<feComposite in2="hardAlpha" operator="out"/>
<feColorMatrix type="matrix" values="0 0 0 0 0 0 0 0 0 0 0 0 0 0 0 0 0 0 0.075 0"/>
<feBlend mode="normal" in2="BackgroundImageFix" result="effect1_dropShadow_947_907"/>
<feBlend mode="normal" in="SourceGraphic" in2="effect1_dropShadow_947_907" result="shape"/>
</filter>
<clipPath id="clip0_947_907">
<rect x="4.87988" y="2" width="82" height="82" rx="4" fill="white"/>
</clipPath>
<clipPath id="clip1_947_907">
<rect width="82" height="82" fill="white" transform="translate(4.87988 2)"/>
</clipPath>
<clipPath id="clip2_947_907">
<rect width="82" height="82" fill="white" transform="translate(4.87988 2)"/>
</clipPath>
</defs>
</svg>
