<svg width="91" height="90" viewBox="0 0 91 90" fill="none" xmlns="http://www.w3.org/2000/svg">
<g filter="url(#filter0_d_947_899)">
<g clip-path="url(#clip0_947_899)">
<rect x="4.62988" y="2" width="82" height="82" rx="4" fill="white"/>
<g clip-path="url(#clip1_947_899)">
<path d="M55.211 58.7639L41.9188 75.7985L13.5714 53.447C12.2619 52.4011 11.4204 50.8789 11.231 49.2137C11.0417 47.5486 11.52 45.8763 12.5611 44.5631L21.9879 32.6846L55.211 58.7639Z" fill="#2159A6"/>
<path d="M41.7312 75.6509L24.585 61.9815L37.9149 45.1846L55.212 58.7638L41.9198 75.8001L41.7312 75.6509Z" fill="#005E7A"/>
<path d="M41.6821 75.6132L41.9183 75.8002L78.7314 28.6223C79.7566 27.3075 80.2221 25.6416 80.0268 23.9858C79.8315 22.33 78.9913 20.818 77.6883 19.7778L65.6753 10.2002L37.915 45.1847L55.2121 58.7639L41.9199 75.7986L41.6821 75.6132Z" fill="#2589AD"/>
</g>
</g>
</g>
<defs>
<filter id="filter0_d_947_899" x="0.629883" y="0" width="90" height="90" filterUnits="userSpaceOnUse" color-interpolation-filters="sRGB">
<feFlood flood-opacity="0" result="BackgroundImageFix"/>
<feColorMatrix in="SourceAlpha" type="matrix" values="0 0 0 0 0 0 0 0 0 0 0 0 0 0 0 0 0 0 127 0" result="hardAlpha"/>
<feOffset dy="2"/>
<feGaussianBlur stdDeviation="2"/>
<feComposite in2="hardAlpha" operator="out"/>
<feColorMatrix type="matrix" values="0 0 0 0 0 0 0 0 0 0 0 0 0 0 0 0 0 0 0.075 0"/>
<feBlend mode="normal" in2="BackgroundImageFix" result="effect1_dropShadow_947_899"/>
<feBlend mode="normal" in="SourceGraphic" in2="effect1_dropShadow_947_899" result="shape"/>
</filter>
<clipPath id="clip0_947_899">
<rect x="4.62988" y="2" width="82" height="82" rx="4" fill="white"/>
</clipPath>
<clipPath id="clip1_947_899">
<rect width="82" height="82" fill="white" transform="translate(4.62988 2)"/>
</clipPath>
</defs>
</svg>
