<svg width="91" height="90" viewBox="0 0 91 90" fill="none" xmlns="http://www.w3.org/2000/svg">
<g filter="url(#filter0_d_947_823)">
<g clip-path="url(#clip0_947_823)">
<rect x="4.62988" y="2" width="82" height="82" rx="4" fill="white"/>
<g clip-path="url(#clip1_947_823)">
<path d="M11.1899 42.9999C11.1899 41.2601 11.8811 39.5916 13.1113 38.3613C14.3416 37.1311 16.0101 36.4399 17.7499 36.4399H29.2299V77.4399H11.1899V42.9999Z" fill="#2159A6"/>
<path d="M47.27 15.1201C47.27 11.4957 50.3467 8.56006 54.1416 8.56006H80.07V70.8801C80.07 74.5045 76.9934 77.4401 73.1984 77.4401H47.27V15.1201Z" fill="#0078D4"/>
<path d="M29.23 29.9897C29.23 26.3063 32.3066 23.3198 36.1016 23.3198H62.03V70.7699C62.03 74.4534 58.9533 77.4398 55.1584 77.4398H29.23V29.9897Z" fill="#2589AD"/>
<path d="M47.27 77.4398H55.1584C58.9534 77.4398 62.03 74.4534 62.03 70.7699V23.3198H47.27V77.4398Z" fill="#2159A6"/>
<path d="M29.23 77.4399L37.4218 77.4367C39.1632 77.4367 40.8334 76.7451 42.065 75.514C43.2967 74.283 43.9891 72.6132 43.99 70.8717V36.4399H29.23V77.4399Z" fill="#2589AD"/>
</g>
</g>
</g>
<defs>
<filter id="filter0_d_947_823" x="0.629883" y="0" width="90" height="90" filterUnits="userSpaceOnUse" color-interpolation-filters="sRGB">
<feFlood flood-opacity="0" result="BackgroundImageFix"/>
<feColorMatrix in="SourceAlpha" type="matrix" values="0 0 0 0 0 0 0 0 0 0 0 0 0 0 0 0 0 0 127 0" result="hardAlpha"/>
<feOffset dy="2"/>
<feGaussianBlur stdDeviation="2"/>
<feComposite in2="hardAlpha" operator="out"/>
<feColorMatrix type="matrix" values="0 0 0 0 0 0 0 0 0 0 0 0 0 0 0 0 0 0 0.075 0"/>
<feBlend mode="normal" in2="BackgroundImageFix" result="effect1_dropShadow_947_823"/>
<feBlend mode="normal" in="SourceGraphic" in2="effect1_dropShadow_947_823" result="shape"/>
</filter>
<clipPath id="clip0_947_823">
<rect x="4.62988" y="2" width="82" height="82" rx="4" fill="white"/>
</clipPath>
<clipPath id="clip1_947_823">
<rect width="82" height="82" fill="white" transform="translate(4.62988 2)"/>
</clipPath>
</defs>
</svg>
