<svg width="91" height="90" viewBox="0 0 91 90" fill="none" xmlns="http://www.w3.org/2000/svg">
<g filter="url(#filter0_d_947_842)">
<g clip-path="url(#clip0_947_842)">
<rect x="4.12988" y="2" width="82" height="82" rx="4" fill="white"/>
<g clip-path="url(#clip1_947_842)">
<path d="M10.6899 62.6801C10.6899 59.0557 13.5763 56.1201 17.1384 56.1201H78.4055C78.4055 59.7445 75.5191 62.6801 71.9571 62.6801H10.6899Z" fill="#2EBCFA"/>
<path fill-rule="evenodd" clip-rule="evenodd" d="M24.2168 21.4883C21.1664 25.9409 18.4456 31.5481 16.8892 35.348L10.936 32.8257C12.6039 28.7535 15.528 22.6954 18.9261 17.7377C20.6153 15.2711 22.5308 12.9177 24.5808 11.2285C26.5587 9.59999 29.2188 8.14039 32.2019 8.67011C38.1158 9.71971 40.889 14.9333 42.1944 19.3711C43.5392 23.9516 43.7393 28.9881 43.7393 31.9401V31.9679C43.7393 33.585 43.7393 35.9302 43.6278 38.6641C45.6548 38.5509 47.4113 38.8035 48.9332 39.3299C49.2483 38.6788 49.6344 38.0644 50.0845 37.498C51.7409 35.4316 54.214 34.1754 57.3841 34.1163C60.2148 34.0639 62.1204 35.7596 63.3636 36.8666C63.4718 36.965 63.5768 37.0569 63.6752 37.1421C65.0232 38.3197 66.66 39.6973 69.6251 40.9371C69.7104 40.9273 69.8383 40.9092 70.0187 40.8731C70.5927 40.7583 71.3503 40.5287 72.2409 40.2073C73.4249 39.7793 74.5074 39.3217 75.5127 38.8969C76.1129 38.6444 76.6853 38.4017 77.2363 38.1852L79.57 44.3024C79.2716 44.4188 78.832 44.6025 78.3138 44.8206C77.0223 45.3748 75.7176 45.8975 74.4008 46.3885C73.3938 46.7525 72.2966 47.1035 71.2684 47.3101C70.4221 47.4791 68.9264 47.7119 67.5439 47.1544C63.4374 45.5012 61.1086 43.5463 59.4751 42.1195C57.7958 40.655 57.6613 40.6649 57.5317 40.6747H57.5038C56.0803 40.7026 55.4506 41.188 55.0848 41.6423C54.7716 42.0359 54.5158 42.5935 54.3534 43.2872C54.7109 43.7481 55.0324 44.2269 55.3046 44.7107C55.795 45.5799 56.2591 46.6951 56.3411 47.9284C56.4313 49.2601 56.0623 50.8509 54.729 52.0333C54.3262 52.3972 53.8452 52.6636 53.3231 52.812C52.8011 52.9605 52.2519 52.9869 51.7179 52.8894C50.9069 52.7295 50.17 52.3098 49.6187 51.6939C48.9266 50.9395 48.5445 49.9883 48.3264 49.306C47.9902 48.2132 47.7919 47.0827 47.736 45.9407C46.98 45.4996 45.5876 44.9895 43.144 45.2847L43.1161 45.5521C42.4962 51.0526 41.2268 57.3141 38.4782 62.1948C35.9788 66.6326 33.4073 70.28 30.9408 72.8663C29.7091 74.1602 28.4365 75.259 27.1442 76.0528C25.8764 76.8318 24.3873 77.4419 22.7818 77.4419C20.5497 77.4419 17.6076 76.6793 15.8938 73.806C14.2685 71.0803 14.3636 67.4264 15.674 63.164C18.2882 54.6491 24.4496 45.3782 34.4208 41.0847C35.3013 40.7042 36.1957 40.3568 37.1022 40.0433C37.2876 36.7715 37.2892 33.8933 37.2892 31.9401C37.2892 29.1668 37.0858 24.8995 36.0133 21.2505C34.8981 17.4589 33.24 15.5138 31.0916 15.1333C30.8506 15.0907 30.0847 15.1333 28.6366 16.3273C27.2606 17.4605 25.7518 19.2497 24.2168 21.4883ZM36.3692 47.379C28.9236 50.8312 23.9937 58.0702 21.8273 65.1222C20.7186 68.7302 21.2172 70.0865 21.4058 70.403C21.5058 70.5719 21.7879 70.8819 22.7801 70.8819C22.7801 70.8819 22.8605 70.8802 23.036 70.8195C23.2196 70.7572 23.4771 70.6408 23.8084 70.4374C24.4808 70.0241 25.3254 69.3337 26.3094 68.3005C28.2774 66.2341 30.5439 63.0853 32.8809 58.9345C34.6242 55.8381 35.7132 51.707 36.3692 47.379Z" fill="#005E7A"/>
</g>
</g>
</g>
<defs>
<filter id="filter0_d_947_842" x="0.129883" y="0" width="90" height="90" filterUnits="userSpaceOnUse" color-interpolation-filters="sRGB">
<feFlood flood-opacity="0" result="BackgroundImageFix"/>
<feColorMatrix in="SourceAlpha" type="matrix" values="0 0 0 0 0 0 0 0 0 0 0 0 0 0 0 0 0 0 127 0" result="hardAlpha"/>
<feOffset dy="2"/>
<feGaussianBlur stdDeviation="2"/>
<feComposite in2="hardAlpha" operator="out"/>
<feColorMatrix type="matrix" values="0 0 0 0 0 0 0 0 0 0 0 0 0 0 0 0 0 0 0.075 0"/>
<feBlend mode="normal" in2="BackgroundImageFix" result="effect1_dropShadow_947_842"/>
<feBlend mode="normal" in="SourceGraphic" in2="effect1_dropShadow_947_842" result="shape"/>
</filter>
<clipPath id="clip0_947_842">
<rect x="4.12988" y="2" width="82" height="82" rx="4" fill="white"/>
</clipPath>
<clipPath id="clip1_947_842">
<rect width="82" height="82" fill="white" transform="translate(4.12988 2)"/>
</clipPath>
</defs>
</svg>
