<svg width="20" height="20" viewBox="0 0 20 20" fill="none" xmlns="http://www.w3.org/2000/svg">
<path d="M3.33366 16.6663C2.87533 16.6663 2.4831 16.5033 2.15699 16.1772C1.83088 15.8511 1.66755 15.4586 1.66699 14.9997V4.99967C1.66699 4.54134 1.83033 4.14912 2.15699 3.82301C2.48366 3.4969 2.87588 3.33356 3.33366 3.33301H16.667C17.1253 3.33301 17.5178 3.49634 17.8445 3.82301C18.1712 4.14967 18.3342 4.5419 18.3337 4.99967V14.9997C18.3337 15.458 18.1706 15.8505 17.8445 16.1772C17.5184 16.5038 17.1259 16.6669 16.667 16.6663H3.33366ZM10.0003 10.833L16.667 6.66634V4.99967L10.0003 9.16634L3.33366 4.99967V6.66634L10.0003 10.833Z" fill="#AAD4F7"/>
</svg>
