<svg width="24" height="24" viewBox="0 0 24 24" fill="none" xmlns="http://www.w3.org/2000/svg">
<path d="M9.24808 12L1.29313 4.04505C0.560892 3.31282 0.560892 2.12563 1.29312 1.3934C2.02536 0.661165 3.21254 0.661165 3.94478 1.3934L11.8997 9.34835L19.8547 1.3934C20.5869 0.661165 21.7741 0.661165 22.5063 1.3934C23.2386 2.12563 23.2386 3.31282 22.5063 4.04505L14.5514 12L22.5063 19.955C23.2386 20.6872 23.2386 21.8744 22.5063 22.6066C21.7741 23.3388 20.5869 23.3388 19.8547 22.6066L11.8997 14.6516L3.94477 22.6066C3.21254 23.3388 2.02536 23.3388 1.29312 22.6066C0.560891 21.8744 0.560891 20.6872 1.29312 19.955L9.24808 12Z" fill="white"/>
</svg>
